<?xml version="1.0" encoding="utf-8"?>
<!-- Generator: Adobe Illustrator 26.0.1, SVG Export Plug-In . SVG Version: 6.00 Build 0)  -->
<svg version="1.1" id="Layer_1" xmlns="http://www.w3.org/2000/svg" xmlns:xlink="http://www.w3.org/1999/xlink" x="0px" y="0px"
	 viewBox="0 0 1908.6 837.4" style="enable-background:new 0 0 1908.6 837.4;" xml:space="preserve">
<style type="text/css">
	.st0{fill:#FFFFFF;}
</style>
<g id="Layer_2_00000179636198726857458930000005135132369632040332_">
	<g id="OBJECTS">
		<path class="st0" d="M365.7,610.5c-1.8,0-3.3,1.5-3.3,3.3s1.5,3.3,3.3,3.3s3.3-1.5,3.3-3.3c0,0,0,0,0,0
			C369,612,367.6,610.5,365.7,610.5C365.7,610.5,365.7,610.5,365.7,610.5z"/>
		<path class="st0" d="M365.7,629.7c-1.8,0-3.3,1.5-3.3,3.3c0,1.8,1.5,3.3,3.3,3.3s3.3-1.5,3.3-3.3
			C369,631.2,367.6,629.7,365.7,629.7C365.8,629.7,365.7,629.7,365.7,629.7z"/>
		<path class="st0" d="M369,652.2c0-1.8-1.5-3.3-3.3-3.3c-1.8,0-3.3,1.5-3.3,3.3s1.5,3.3,3.3,3.3c0,0,0,0,0,0
			C367.5,655.4,369,654,369,652.2z"/>
		<path class="st0" d="M351.3,648.9c-1.8,0-3.3,1.5-3.3,3.3s1.5,3.3,3.3,3.3c1.8,0,3.3-1.5,3.3-3.3c0,0,0,0,0,0
			C354.5,650.4,353.1,648.9,351.3,648.9C351.3,648.9,351.3,648.9,351.3,648.9z"/>
		<path class="st0" d="M336.8,648.9c-1.8,0-3.3,1.5-3.3,3.3s1.5,3.3,3.3,3.3c1.8,0,3.3-1.5,3.3-3.3c0,0,0,0,0,0
			C340,650.4,338.6,648.9,336.8,648.9C336.8,648.9,336.8,648.9,336.8,648.9z"/>
		<path class="st0" d="M351.3,629.7c-1.8,0-3.3,1.5-3.3,3.3c0,1.8,1.5,3.3,3.3,3.3s3.3-1.5,3.3-3.3c0,0,0,0,0,0
			C354.5,631.2,353.1,629.7,351.3,629.7C351.3,629.7,351.3,629.7,351.3,629.7z"/>
		<path class="st0" d="M336.8,629.7c-1.8,0-3.3,1.4-3.3,3.2c0,1.8,1.4,3.3,3.2,3.3c1.8,0,3.3-1.4,3.3-3.2c0,0,0,0,0,0
			C340,631.2,338.6,629.7,336.8,629.7z"/>
		<path class="st0" d="M351.3,610.5c-1.8,0-3.3,1.5-3.3,3.3c0,1.8,1.5,3.3,3.3,3.3s3.3-1.5,3.3-3.3c0,0,0,0,0,0
			C354.5,612,353.1,610.5,351.3,610.5C351.3,610.5,351.3,610.5,351.3,610.5z"/>
		<path class="st0" d="M336.8,610.5c-1.8,0-3.3,1.5-3.3,3.3c0,1.8,1.5,3.3,3.3,3.3s3.3-1.5,3.3-3.3c0,0,0,0,0,0
			C340,612,338.6,610.5,336.8,610.5C336.8,610.5,336.8,610.5,336.8,610.5z"/>
		<path class="st0" d="M313.3,375.8c0,1.8,1.5,3.3,3.3,3.3c1.8,0,3.3-1.5,3.3-3.3s-1.5-3.3-3.3-3.3c0,0,0,0,0,0
			C314.8,372.5,313.3,374,313.3,375.8C313.3,375.8,313.3,375.8,313.3,375.8z"/>
		<circle class="st0" cx="316.6" cy="395" r="3.3"/>
		<circle class="st0" cx="316.6" cy="414.1" r="3.3"/>
		<path class="st0" d="M305.4,414.1c0-1.8-1.5-3.3-3.3-3.3s-3.3,1.5-3.3,3.3s1.5,3.3,3.3,3.3c0,0,0,0,0,0
			C303.9,417.4,305.4,415.9,305.4,414.1C305.4,414.1,305.4,414.1,305.4,414.1z"/>
		<circle class="st0" cx="287.6" cy="414.1" r="3.3"/>
		<path class="st0" d="M302.1,391.7c-1.8,0-3.3,1.5-3.2,3.3c0,1.8,1.5,3.3,3.3,3.2c1.8,0,3.2-1.5,3.2-3.3
			C305.4,393.1,303.9,391.7,302.1,391.7C302.1,391.7,302.1,391.7,302.1,391.7z"/>
		<circle class="st0" cx="287.6" cy="395" r="3.3"/>
		<path class="st0" d="M302.1,372.5c-1.8,0-3.3,1.5-3.2,3.3c0,1.8,1.5,3.3,3.3,3.2c1.8,0,3.2-1.5,3.2-3.3
			C305.4,374,303.9,372.5,302.1,372.5C302.1,372.5,302.1,372.5,302.1,372.5z"/>
		<path class="st0" d="M287.6,372.5c-1.8,0-3.3,1.5-3.2,3.3c0,1.8,1.5,3.3,3.3,3.2c1.8,0,3.2-1.5,3.2-3.3
			C290.9,374,289.4,372.5,287.6,372.5C287.6,372.5,287.6,372.5,287.6,372.5z"/>
		<path class="st0" d="M429.2,605.2c3.9,0,7-3.1,7-7s-3.1-7-7-7s-7,3.1-7,7S425.3,605.2,429.2,605.2z"/>
		<path class="st0" d="M176.7,441.6c2,0,3.6-1.6,3.6-3.6c0-2-1.6-3.6-3.6-3.6c-2,0-3.6,1.6-3.6,3.6l0,0
			C173.1,440,174.7,441.6,176.7,441.6z"/>
		<path class="st0" d="M441.8,511.4c0-2-1.6-3.6-3.6-3.6c-2,0-3.6,1.6-3.6,3.6c0,2,1.6,3.6,3.6,3.6c0,0,0,0,0,0
			C440.2,515,441.8,513.4,441.8,511.4C441.8,511.4,441.8,511.4,441.8,511.4z"/>
		<path class="st0" d="M445.4,322c0-2-1.6-3.6-3.6-3.6c-2,0-3.6,1.6-3.6,3.6s1.6,3.6,3.6,3.6c0,0,0,0,0,0
			C443.8,325.6,445.4,324,445.4,322z"/>
		<path class="st0" d="M369.2,521c0,6.6,5.4,12,12,12s12-5.4,12-12s-5.4-12-12-12S369.2,514.4,369.2,521z M389.2,521
			c0,4.4-3.6,8-8,8s-8-3.6-8-8s3.6-8,8-8S389.2,516.6,389.2,521z"/>
		<path class="st0" d="M515.4,518l-6.7-23.5c-6.4,2-10,8.9-8,15.3C502.7,516,509.1,519.6,515.4,518z"/>
		
			<rect x="460.6" y="541.7" transform="matrix(0.9622 -0.2724 0.2724 0.9622 -131.9804 148.3769)" class="st0" width="15.5" height="15.5"/>
		
			<rect x="271.5" y="182" transform="matrix(0.9622 -0.2724 0.2724 0.9622 -41.1455 83.2641)" class="st0" width="15.5" height="15.5"/>
		<polygon class="st0" points="447.5,219.4 443.9,221.1 454.8,258.5 473.6,236.1 471.7,232.1 456.5,250.2 		"/>
		<circle class="st0" cx="567.3" cy="587.3" r="66.3"/>
		<circle class="st0" cx="484.7" cy="351.4" r="8.3"/>
		<path class="st0" d="M141.9,743.3c-2.9,0-5.3,2.4-5.3,5.3s2.4,5.3,5.3,5.3c2.9,0,5.3-2.4,5.3-5.3c0,0,0,0,0,0
			C147.1,745.7,144.8,743.3,141.9,743.3z"/>
		<path class="st0" d="M558.3,688.4c0-4.8-3.9-8.7-8.7-8.7c-4.8,0-8.7,3.9-8.7,8.7c0,4.8,3.9,8.7,8.7,8.7c0,0,0,0,0,0
			C554.4,697.1,558.3,693.2,558.3,688.4z"/>
		<path class="st0" d="M152.7,525.2c4.8,0,8.7-3.9,8.7-8.7c0-4.8-3.9-8.7-8.7-8.7c-4.8,0-8.7,3.9-8.7,8.7c0,0,0,0,0,0
			C143.9,521.3,147.8,525.2,152.7,525.2C152.6,525.2,152.7,525.2,152.7,525.2z"/>
		<circle class="st0" cx="241" cy="297.6" r="6.2"/>
		<circle class="st0" cx="423.3" cy="355.4" r="9.5"/>
		<circle class="st0" cx="517.1" cy="417.4" r="9.5"/>
		<circle class="st0" cx="155.3" cy="205.1" r="10"/>
		<path class="st0" d="M183.3,115.7c1.9,0,3.4-1.5,3.4-3.4c0-1.9-1.5-3.4-3.4-3.4c-1.9,0-3.4,1.5-3.4,3.4c0,0,0,0,0,0
			C179.8,114.2,181.4,115.7,183.3,115.7z"/>
		<path class="st0" d="M53.2,261.1c0,13.4,10.8,24.2,24.2,24.2s24.2-10.8,24.2-24.2c0-13.4-10.8-24.2-24.2-24.2c0,0,0,0,0,0
			C64.1,236.9,53.3,247.7,53.2,261.1z M93.6,261.1c0,8.9-7.2,16.2-16.1,16.2s-16.2-7.2-16.2-16.1c0-8.9,7.2-16.2,16.1-16.2
			c0,0,0,0,0,0C86.4,245,93.6,252.2,93.6,261.1z"/>
		<path class="st0" d="M247.3,634.5l49.2,17.1L273.6,569L247.3,634.5z M255.1,630.6l17.4-43.3l15.1,54.6L255.1,630.6z"/>
		<path class="st0" d="M121.3,395l-28.4,33.7l47.5,36.1L121.3,395z M119,405.8l12.6,46.2l-31.4-23.9L119,405.8z"/>
		<polygon class="st0" points="483.1,68.2 508.1,79.7 512.6,69.9 499.4,63.8 511.4,46.5 492.3,37.8 500.7,25.8 491.9,19.6 476,42.2 
			495.2,50.9 		"/>
		<path class="st0" d="M146.8,804.1c3.9,14.6,18.9,23.2,33.5,19.3L166,770.6C151.4,774.6,142.8,789.6,146.8,804.1z"/>
		<path class="st0" d="M388.9,787.1c3.9,14.6,18.9,23.2,33.5,19.3l-14.2-52.8C393.6,757.5,385,772.5,388.9,787.1z"/>
		<path class="st0" d="M98.8,557.7l-14.2-52.8c-14.5,4.1-22.9,19.2-18.8,33.8C69.8,552.9,84.4,561.4,98.8,557.7z"/>
		<path class="st0" d="M506.1,790.7c9.4,33.9,44.6,53.7,78.5,44.3l-34.1-122.8C516.5,721.6,496.6,756.7,506.1,790.7
			C506,790.6,506.1,790.6,506.1,790.7z"/>
		<path class="st0" d="M143.4,74.4c9.9,32-8,65.9-39.9,75.8L109,168c41.8-12.9,65.2-57.3,52.2-99.1S103.9,3.7,62.1,16.6c0,0,0,0,0,0
			l5.5,17.8C99.6,24.6,133.5,42.4,143.4,74.4z"/>
		<path class="st0" d="M198,754c-7.7-27.3,8.2-55.7,35.4-63.4l-4.3-15.2c-35.8,9.7-56.9,46.6-47.2,82.4
			c9.7,35.8,46.6,56.9,82.4,47.2c0.4-0.1,0.9-0.2,1.3-0.4l-4.3-15.2C234.1,797.1,205.7,781.3,198,754z"/>
		<path class="st0" d="M408.9,645.5l4.3,15.2c27.3-7.7,55.7,8.1,63.4,35.4s-8.1,55.7-35.4,63.4l4.3,15.2
			c35.7-10.1,56.5-47.2,46.4-82.9S444.7,635.4,408.9,645.5L408.9,645.5z"/>
		<path class="st0" d="M224.2,213.7l-39.5,10.8l10.8,39.5l39.5-10.8L224.2,213.7z M190.6,227.5l30.7-7.9l8.7,30.5l-31.6,8.1
			L190.6,227.5z"/>
		<path class="st0" d="M217.9,607.6l-5.3-20l-20,5.3l5.3,20L217.9,607.6z M211.3,590.2l4,16.1l-16.1,4l-4-16.1L211.3,590.2z"/>
		<path class="st0" d="M383.6,696.2l-20,5.3l5.3,20l20-5.3L383.6,696.2z M366.2,702.8l16.1-4l4,16.1l-16.1,4L366.2,702.8z"/>
		<path class="st0" d="M464.5,615.6l5.3,20l20-5.3l-5.3-20L464.5,615.6z M471.1,633l-4-16.1l16.1-4l4,16.1L471.1,633z"/>
		<path class="st0" d="M395.3,147l-20,5.3l5.3,20l20-5.3L395.3,147z M377.9,153.6l16.1-4l4,16.1l-16.1,4L377.9,153.6z"/>
		<polygon class="st0" points="215.8,76.2 222.7,82.3 243.2,59 220.4,51.2 231.7,38.3 224.8,32.2 204.3,55.5 227.2,63.3 		"/>
		<polygon class="st0" points="594.3,265.2 564.2,255.7 572.1,283 		"/>
		<polygon class="st0" points="101.4,173.6 81.6,196.5 110.4,206 		"/>
		<polygon class="st0" points="598.4,16 545.4,70.9 613.1,83.3 		"/>
		<path class="st0" d="M210.8,149.9l4.8,17.1l14.3-16.7l-15.2-5l10.4-12.1l-20.9-6.8L210.8,149.9L210.8,149.9z M223.8,152l-6.5,7.6
			l-3-10.7L223.8,152z M219,134.9l-6.5,7.6l-3-10.7L219,134.9z"/>
		<polygon class="st0" points="280.3,116.9 276,99.7 272.1,100.8 276.6,118 		"/>
		<polygon class="st0" points="462,446.5 458.1,447.6 462.6,464.8 466.3,463.7 		"/>
		<polygon class="st0" points="196.4,525 200.9,542.2 204.5,541.1 200.3,523.9 		"/>
		<path class="st0" d="M503.9,103.8l-3.6,1.2l3.5,12.4c-18.6,18.4-18.9,48.4-0.5,67s48.4,18.9,67,0.5s18.9-48.4,0.5-67
			c-17.2-17.5-45-18.9-63.9-3.3L503.9,103.8z M537,108.8c23.4,0,42.3,18.9,42.4,42.2c0,23.4-18.9,42.3-42.2,42.4
			c-23.4,0-42.3-18.9-42.4-42.2c0-10.4,3.8-20.4,10.7-28.1l3.8,13.6l3.3-1.3l-4.2-15.3C516.2,112.9,526.4,108.8,537,108.8L537,108.8
			z"/>
		<path class="st0" d="M143.6,279.4l-25.7,31.1l37.5,11.5L143.6,279.4z M142.3,287.4l7.6,29.2l-25.7-7.9L142.3,287.4z"/>
		<path class="st0" d="M525.4,297.6l-23.1,27l33.8,10.9L525.4,297.6z M523.9,304.4l7.3,26l-23.2-7.5L523.9,304.4z"/>
		<polygon class="st0" points="517.8,218.1 528.1,255.7 556.2,222.6 		"/>
		<polygon class="st0" points="327.1,507.2 302.1,504.3 308.8,528.8 		"/>
		<polygon class="st0" points="328.3,705.7 321,707.9 318.9,700.5 313.1,702.2 315.2,709.6 307.9,711.7 309.6,717.5 316.9,715.3 
			319,722.7 324.8,721 322.7,713.7 330,711.5 		"/>
		<polygon class="st0" points="450.8,152 442.7,154.4 444.6,160.7 452.7,158.4 455,166.4 461.4,164.6 459.1,156.5 467.1,154.1 
			465.3,147.8 457.2,150.1 454.8,142.1 448.5,143.9 		"/>
		<polygon class="st0" points="568.9,457.3 558,460.5 554.8,449.5 546.1,452.1 549.3,463 538.4,466.2 540.9,474.8 551.8,471.6 
			555,482.6 563.7,480.1 560.5,469.1 571.4,465.9 		"/>
		<polygon class="st0" points="369.6,299.5 378.3,297 375.1,286 386,282.9 383.5,274.2 372.6,277.4 369.4,266.5 360.7,269 
			363.9,279.9 353,283.1 355.5,291.8 366.5,288.6 		"/>
		<polygon class="st0" points="125.7,770.5 113.3,774.2 109.7,761.8 99.9,764.6 103.6,777 91.2,780.6 94,790.4 106.4,786.8 
			110,799.2 119.8,796.3 116.2,783.9 128.6,780.3 		"/>
		<circle class="st0" cx="87.7" cy="92.5" r="45.2"/>
		
			<ellipse transform="matrix(0.6113 -0.7914 0.7914 0.6113 -495.421 332.8623)" class="st0" cx="91.2" cy="670.8" rx="38.4" ry="38.3"/>
		<path class="st0" d="M77.5,595.5C34.7,595.5,0,630.2,0,673c0,42.8,34.7,77.5,77.5,77.5c42.8,0,77.5-34.7,77.5-77.4
			C154.9,630.2,120.2,595.5,77.5,595.5z M77.5,742.1c-38.2,0-69.1-30.9-69.1-69.1c0-38.2,30.9-69.1,69.1-69.1s69.1,30.9,69.1,69.1
			c0,0,0,0,0,0C146.5,711.1,115.6,742,77.5,742.1z"/>
		<path class="st0" d="M251.4,699.4c-23.7,0-42.9,19.2-42.9,42.9s19.2,42.9,42.9,42.9s42.9-19.2,42.9-42.9c0,0,0,0,0,0
			C294.2,718.6,275,699.4,251.4,699.4z M251.4,780.5c-21.1,0-38.2-17.1-38.2-38.2s17.1-38.2,38.2-38.2s38.2,17.1,38.2,38.2l0,0
			C289.6,763.3,272.5,780.4,251.4,780.5z"/>
		
			<rect x="350.3" y="11.1" transform="matrix(0.9596 -0.2813 0.2813 0.9596 -9.835757e-02 113.8427)" class="st0" width="92.2" height="92.2"/>
		<polygon class="st0" points="289.7,65 299.4,62.2 302.2,71.9 309.9,69.7 307.1,60 316.8,57.1 314.6,49.5 304.8,52.3 302,42.5 
			294.3,44.8 297.1,54.5 287.4,57.4 		"/>
		<polygon class="st0" points="187.8,364.7 194.1,362.9 195.9,369.2 200.8,367.7 199,361.5 205.3,359.6 203.8,354.7 197.6,356.5 
			195.7,350.2 190.8,351.7 192.6,358 186.4,359.8 		"/>
		<path class="st0" d="M998.2,610.5c-1.8,0-3.3,1.5-3.3,3.3s1.5,3.3,3.3,3.3s3.3-1.5,3.3-3.3c0,0,0,0,0,0
			C1001.5,612,1000,610.5,998.2,610.5L998.2,610.5z"/>
		<path class="st0" d="M998.2,629.7c-1.8,0-3.3,1.5-3.3,3.3s1.5,3.3,3.3,3.3s3.3-1.5,3.3-3.3c0,0,0,0,0,0
			C1001.5,631.2,1000,629.7,998.2,629.7L998.2,629.7z"/>
		<path class="st0" d="M1001.5,652.2c0-1.8-1.5-3.3-3.3-3.3s-3.3,1.5-3.3,3.3c0,1.8,1.5,3.3,3.3,3.3
			C1000,655.4,1001.5,654,1001.5,652.2L1001.5,652.2z"/>
		<path class="st0" d="M983.8,648.9c-1.8,0-3.3,1.5-3.3,3.3c0,1.8,1.5,3.3,3.3,3.3c1.8,0,3.3-1.5,3.3-3.3c0,0,0,0,0,0
			C987,650.4,985.6,648.9,983.8,648.9C983.8,648.9,983.8,648.9,983.8,648.9z"/>
		<path class="st0" d="M969.3,648.9c-1.8,0-3.3,1.5-3.3,3.3c0,1.8,1.5,3.3,3.3,3.3c1.8,0,3.3-1.5,3.3-3.3c0,0,0,0,0,0
			C972.5,650.4,971.1,648.9,969.3,648.9C969.3,648.9,969.3,648.9,969.3,648.9z"/>
		<path class="st0" d="M983.8,629.7c-1.8,0-3.3,1.4-3.3,3.2c0,1.8,1.4,3.3,3.2,3.3c1.8,0,3.3-1.4,3.3-3.2c0,0,0,0,0,0
			C987,631.2,985.6,629.7,983.8,629.7C983.8,629.7,983.8,629.7,983.8,629.7z"/>
		<path class="st0" d="M969.3,629.7c-1.8,0-3.3,1.5-3.3,3.3s1.5,3.3,3.3,3.3s3.3-1.5,3.3-3.3c0,0,0,0,0,0
			C972.5,631.2,971.1,629.7,969.3,629.7L969.3,629.7z"/>
		<path class="st0" d="M983.8,610.5c-1.8,0-3.3,1.5-3.3,3.3s1.5,3.3,3.3,3.3s3.3-1.5,3.3-3.3c0,0,0,0,0,0
			C987,612,985.6,610.5,983.8,610.5L983.8,610.5z"/>
		<path class="st0" d="M969.3,610.5c-1.8,0-3.3,1.5-3.3,3.3s1.5,3.3,3.3,3.3s3.3-1.5,3.3-3.3c0,0,0,0,0,0
			C972.5,612,971.1,610.5,969.3,610.5L969.3,610.5z"/>
		<path class="st0" d="M945.8,375.8c0,1.8,1.5,3.3,3.3,3.3s3.3-1.5,3.3-3.3c0-1.8-1.5-3.3-3.3-3.3c0,0,0,0,0,0
			C947.3,372.5,945.8,374,945.8,375.8C945.8,375.8,945.8,375.8,945.8,375.8z"/>
		<circle class="st0" cx="949.1" cy="395" r="3.3"/>
		<circle class="st0" cx="949.1" cy="414.1" r="3.3"/>
		<path class="st0" d="M937.9,414.1c0-1.8-1.5-3.3-3.3-3.3c-1.8,0-3.3,1.5-3.3,3.3s1.5,3.3,3.3,3.3
			C936.4,417.4,937.9,415.9,937.9,414.1C937.9,414.1,937.9,414.1,937.9,414.1z"/>
		<circle class="st0" cx="920.1" cy="414.1" r="3.3"/>
		<path class="st0" d="M934.6,391.7c-1.8,0-3.3,1.5-3.2,3.3c0,1.8,1.5,3.3,3.3,3.2c1.8,0,3.2-1.5,3.2-3.3
			C937.9,393.1,936.4,391.7,934.6,391.7C934.6,391.7,934.6,391.7,934.6,391.7z"/>
		<circle class="st0" cx="920.1" cy="395" r="3.3"/>
		<path class="st0" d="M934.6,372.5c-1.8,0-3.3,1.5-3.2,3.3c0,1.8,1.5,3.3,3.3,3.2c1.8,0,3.2-1.5,3.2-3.3
			C937.9,374,936.4,372.5,934.6,372.5C934.6,372.5,934.6,372.5,934.6,372.5z"/>
		<path class="st0" d="M920.1,372.5c-1.8,0-3.3,1.5-3.2,3.3c0,1.8,1.5,3.3,3.3,3.2c1.8,0,3.2-1.5,3.2-3.3
			C923.4,374,921.9,372.5,920.1,372.5C920.1,372.5,920.1,372.5,920.1,372.5z"/>
		<path class="st0" d="M1061.7,605.2c3.9,0,7-3.1,7-7s-3.1-7-7-7s-7,3.1-7,7S1057.8,605.2,1061.7,605.2z"/>
		<path class="st0" d="M809.2,441.6c2,0,3.6-1.6,3.6-3.6c0-2-1.6-3.6-3.6-3.6c-2,0-3.6,1.6-3.6,3.6S807.2,441.6,809.2,441.6
			L809.2,441.6z"/>
		<path class="st0" d="M1074.3,511.4c0-2-1.6-3.6-3.6-3.6c-2,0-3.6,1.6-3.6,3.6s1.6,3.6,3.6,3.6c0,0,0,0,0,0
			C1072.7,515,1074.3,513.4,1074.3,511.4C1074.3,511.4,1074.3,511.4,1074.3,511.4z"/>
		<path class="st0" d="M1077.9,322c0-2-1.6-3.6-3.6-3.6c-2,0-3.6,1.6-3.6,3.6c0,2,1.6,3.6,3.6,3.6c0,0,0,0,0,0
			C1076.3,325.6,1077.9,324,1077.9,322z"/>
		<path class="st0" d="M1001.7,521c0,6.6,5.4,12,12,12s12-5.4,12-12s-5.4-12-12-12S1001.7,514.4,1001.7,521z M1021.7,521
			c0,4.4-3.6,8-8,8s-8-3.6-8-8s3.6-8,8-8S1021.7,516.6,1021.7,521z"/>
		<path class="st0" d="M1147.9,518l-6.7-23.5c-6.5,1.8-10.3,8.6-8.4,15.1C1134.6,516.1,1141.4,519.8,1147.9,518L1147.9,518z"/>
		
			<rect x="1093" y="541.7" transform="matrix(0.9622 -0.2724 0.2724 0.9622 -108.0615 320.6996)" class="st0" width="15.5" height="15.5"/>
		
			<rect x="904" y="182.1" transform="matrix(0.9622 -0.2724 0.2724 0.9622 -17.2238 255.5864)" class="st0" width="15.5" height="15.5"/>
		<polygon class="st0" points="1080,219.4 1076.4,221.1 1087.3,258.5 1106.1,236.1 1104.2,232.1 1089,250.2 		"/>
		<circle class="st0" cx="1199.7" cy="587.3" r="66.3"/>
		<circle class="st0" cx="1117.2" cy="351.4" r="8.3"/>
		<path class="st0" d="M774.3,743.3c-2.9,0-5.3,2.4-5.3,5.3c0,2.9,2.4,5.3,5.3,5.3c2.9,0,5.3-2.4,5.3-5.3c0,0,0,0,0,0
			C779.6,745.7,777.3,743.3,774.3,743.3z"/>
		<path class="st0" d="M1190.8,688.4c0-4.8-3.9-8.7-8.7-8.7c-4.8,0-8.7,3.9-8.7,8.7c0,4.8,3.9,8.7,8.7,8.7c0,0,0,0,0,0
			C1186.9,697.1,1190.8,693.2,1190.8,688.4z"/>
		<path class="st0" d="M785.2,525.2c4.8,0,8.7-3.9,8.7-8.7c0-4.8-3.9-8.7-8.7-8.7c-4.8,0-8.7,3.9-8.7,8.7c0,0,0,0,0,0
			C776.4,521.3,780.3,525.2,785.2,525.2C785.1,525.2,785.1,525.2,785.2,525.2z"/>
		<circle class="st0" cx="873.5" cy="297.6" r="6.2"/>
		<circle class="st0" cx="1055.8" cy="355.4" r="9.4"/>
		<circle class="st0" cx="1149.6" cy="417.4" r="9.4"/>
		
			<ellipse transform="matrix(0.2297 -0.9733 0.9733 0.2297 407.1552 924.7224)" class="st0" cx="787.8" cy="205.1" rx="10" ry="10"/>
		<path class="st0" d="M815.8,115.7c1.9,0,3.4-1.5,3.4-3.4c0-1.9-1.5-3.4-3.4-3.4c-1.9,0-3.4,1.5-3.4,3.4c0,0,0,0,0,0
			C812.3,114.2,813.9,115.7,815.8,115.7z"/>
		<path class="st0" d="M685.7,261.1c0,13.4,10.8,24.2,24.2,24.2c13.4,0,24.2-10.8,24.2-24.2c0-13.4-10.8-24.2-24.2-24.2
			C696.6,236.9,685.8,247.7,685.7,261.1z M726.1,261.1c0,8.9-7.2,16.2-16.1,16.2s-16.2-7.2-16.2-16.1c0-8.9,7.2-16.2,16.1-16.2
			c0,0,0.1,0,0.1,0C718.9,245,726.1,252.2,726.1,261.1z"/>
		<path class="st0" d="M879.8,634.5l49.2,17.1L906.1,569L879.8,634.5z M887.5,630.6l17.5-43.3l15.1,54.6L887.5,630.6z"/>
		<path class="st0" d="M753.8,395l-28.4,33.7l47.5,36.1L753.8,395z M751.5,405.9l12.6,46.1l-31.4-23.9L751.5,405.9z"/>
		<polygon class="st0" points="1115.6,68.2 1140.6,79.7 1145.1,69.9 1131.8,63.8 1143.9,46.5 1124.8,37.8 1133.2,25.8 1124.3,19.6 
			1108.5,42.2 1127.7,50.9 		"/>
		<path class="st0" d="M779.2,804.1c3.9,14.6,18.9,23.2,33.5,19.3l-14.2-52.8C783.9,774.6,775.3,789.5,779.2,804.1
			C779.2,804.1,779.2,804.1,779.2,804.1z"/>
		<path class="st0" d="M1021.4,787.1c3.9,14.6,18.9,23.2,33.5,19.3l-14.2-52.8C1026.1,757.5,1017.5,772.5,1021.4,787.1z"/>
		<path class="st0" d="M731.3,557.7l-14.2-52.8c-14.5,4.1-22.9,19.2-18.8,33.8C702.3,552.9,716.9,561.4,731.3,557.7z"/>
		<path class="st0" d="M1138.6,790.7c9.4,33.9,44.5,53.7,78.4,44.3l-34.1-122.8C1149,721.6,1129.1,756.7,1138.6,790.7
			C1138.5,790.6,1138.5,790.7,1138.6,790.7z"/>
		<path class="st0" d="M775.9,74.4c9.9,32-8,65.9-39.9,75.8l5.5,17.8c41.8-13,65.2-57.3,52.2-99.1s-57.3-65.2-99.1-52.2l5.5,17.8
			C732.1,24.6,766,42.4,775.9,74.4z"/>
		<path class="st0" d="M830.5,754c-7.7-27.3,8.2-55.7,35.5-63.4l-4.3-15.2c-35.6,10.4-56.1,47.7-45.7,83.3
			c10.3,35.2,46.9,55.7,82.3,46l-4.3-15.3C866.6,797.1,838.3,781.3,830.5,754z"/>
		<path class="st0" d="M1041.4,645.5l4.3,15.2c27.3-7.7,55.7,8.1,63.4,35.4c7.7,27.3-8.1,55.7-35.4,63.4l4.3,15.2
			c35.7-10.1,56.5-47.2,46.4-82.9C1114.3,656.2,1077.1,635.4,1041.4,645.5L1041.4,645.5z"/>
		<path class="st0" d="M856.7,213.7l-39.5,10.8l10.8,39.5l39.5-10.8L856.7,213.7z M823,227.5l30.7-7.9l8.7,30.5l-31.6,8.1L823,227.5
			z"/>
		<path class="st0" d="M850.4,607.6l-5.3-20l-20,5.3l5.3,20L850.4,607.6z M843.8,590.2l4,16.1l-16.1,4l-4-16.1L843.8,590.2z"/>
		<path class="st0" d="M1016.1,696.2l-20,5.3l5.3,20l20-5.3L1016.1,696.2z M998.7,702.8l16.1-4l4,16.1l-16.1,4L998.7,702.8z"/>
		<path class="st0" d="M1097,615.6l5.3,20l20-5.3l-5.3-20L1097,615.6z M1103.6,633l-4-16.1l16.1-4l4,16.1L1103.6,633z"/>
		<path class="st0" d="M1027.8,147l-20,5.3l5.3,20l20-5.3L1027.8,147z M1010.4,153.6l16.1-4l4,16.1l-16.1,4L1010.4,153.6z"/>
		<polygon class="st0" points="848.3,76.2 855.2,82.3 875.7,59 852.8,51.2 864.2,38.3 857.3,32.2 836.8,55.5 859.7,63.3 		"/>
		<polygon class="st0" points="1226.8,265.2 1196.7,255.7 1204.6,283 		"/>
		<polygon class="st0" points="733.9,173.6 714.1,196.5 742.9,206 		"/>
		<polygon class="st0" points="1230.9,16 1177.9,70.9 1245.6,83.3 		"/>
		<path class="st0" d="M843.3,149.9l4.8,17.1l14.3-16.7l-15.2-5l10.4-12.1l-20.9-6.8L843.3,149.9L843.3,149.9z M856.3,152l-6.5,7.6
			l-3-10.7L856.3,152z M851.5,134.9l-6.5,7.6l-3-10.7L851.5,134.9z"/>
		<polygon class="st0" points="912.8,116.9 908.5,99.7 904.6,100.8 909.1,118 		"/>
		<polygon class="st0" points="1094.5,446.5 1090.6,447.6 1095.1,464.8 1098.8,463.7 		"/>
		<polygon class="st0" points="828.9,525 833.3,542.2 837,541.1 832.8,523.9 		"/>
		<path class="st0" d="M1136.4,103.8l-3.6,1.2l3.5,12.4c-18.6,18.4-18.9,48.4-0.5,67c18.4,18.6,48.4,18.9,67,0.5
			c18.6-18.4,18.9-48.4,0.5-67c-17.2-17.5-45-18.9-63.9-3.3L1136.4,103.8z M1169.5,108.8c23.4,0,42.3,18.9,42.4,42.2
			s-18.9,42.3-42.2,42.4s-42.3-18.9-42.4-42.2c0-10.4,3.8-20.4,10.7-28.1l3.8,13.6l3.3-1.3l-4.2-15.3
			C1148.7,112.8,1158.9,108.8,1169.5,108.8z"/>
		<path class="st0" d="M776,279.4l-25.7,31.1l37.5,11.5L776,279.4z M774.7,287.4l7.6,29.2l-25.7-7.9L774.7,287.4z"/>
		<path class="st0" d="M1157.9,297.6l-23.1,27l33.8,10.9L1157.9,297.6z M1156.4,304.4l7.3,26l-23.2-7.5L1156.4,304.4z"/>
		<polygon class="st0" points="1150.3,218.1 1160.6,255.7 1188.7,222.6 		"/>
		<polygon class="st0" points="959.6,507.2 934.6,504.3 941.3,528.8 		"/>
		<polygon class="st0" points="960.8,705.7 953.5,707.9 951.3,700.5 945.6,702.2 947.7,709.6 940.4,711.7 942.1,717.5 949.4,715.3 
			951.5,722.7 957.3,721 955.2,713.7 962.5,711.5 		"/>
		<polygon class="st0" points="1083.3,152 1075.2,154.4 1077.1,160.7 1085.2,158.4 1087.5,166.4 1093.9,164.6 1091.6,156.5 
			1099.6,154.1 1097.8,147.8 1089.7,150.1 1087.3,142.1 1080.9,143.9 		"/>
		<polygon class="st0" points="1201.4,457.3 1190.4,460.5 1187.2,449.5 1178.6,452.1 1181.8,463 1170.8,466.2 1173.4,474.8 
			1184.3,471.6 1187.5,482.6 1196.1,480.1 1192.9,469.1 1203.9,465.9 		"/>
		<polygon class="st0" points="1002.1,299.5 1010.8,297 1007.6,286 1018.5,282.9 1016,274.2 1005.1,277.4 1001.9,266.5 993.2,269 
			996.4,279.9 985.5,283.1 988,291.8 998.9,288.6 		"/>
		<polygon class="st0" points="758.2,770.5 745.8,774.2 742.2,761.8 732.4,764.6 736,777 723.7,780.6 726.5,790.4 738.9,786.8 
			742.5,799.2 752.3,796.3 748.7,783.9 761.1,780.3 		"/>
		
			<ellipse transform="matrix(0.7071 -0.7071 0.7071 0.7071 145.537 536.3592)" class="st0" cx="720.2" cy="92.5" rx="45.2" ry="45.2"/>
		<circle class="st0" cx="723.6" cy="670.8" r="38.3"/>
		<path class="st0" d="M710,595.5c-42.8,0-77.5,34.6-77.5,77.4c0,42.8,34.6,77.5,77.4,77.5c42.8,0,77.5-34.6,77.5-77.4c0,0,0,0,0,0
			C787.4,630.2,752.8,595.6,710,595.5z M710,742.1c-38.2,0-69.1-30.9-69.2-69.1c0-38.2,30.9-69.1,69.1-69.2
			c38.2,0,69.1,30.9,69.2,69.1c0,0,0,0.1,0,0.1C779,711.1,748.1,742,710,742.1z"/>
		<path class="st0" d="M883.8,699.4c-23.7,0-42.9,19.2-42.9,42.9s19.2,42.9,42.9,42.9s42.9-19.2,42.9-42.9c0,0,0,0,0,0
			C926.7,718.6,907.5,699.4,883.8,699.4z M883.8,780.5c-21.1,0-38.2-17.1-38.2-38.2s17.1-38.2,38.2-38.2s38.2,17.1,38.2,38.2l0,0
			C922.1,763.3,905,780.4,883.8,780.5z"/>
		
			<rect x="982.8" y="11.2" transform="matrix(0.9596 -0.2813 0.2813 0.9596 25.4385 291.7906)" class="st0" width="92.3" height="92.2"/>
		<polygon class="st0" points="922.2,65 931.9,62.2 934.7,71.9 942.4,69.7 939.6,60 949.3,57.1 947.1,49.5 937.3,52.3 934.5,42.5 
			926.8,44.8 929.6,54.5 919.9,57.4 		"/>
		<polygon class="st0" points="820.3,364.7 826.6,362.9 828.4,369.2 833.3,367.7 831.5,361.5 837.8,359.6 836.3,354.7 830.1,356.5 
			828.2,350.2 823.3,351.7 825.1,358 818.8,359.8 		"/>
		<path class="st0" d="M1640.8,226.8c1.8,0,3.3-1.5,3.3-3.3s-1.5-3.3-3.3-3.3c-1.8,0-3.3,1.5-3.3,3.3S1639,226.8,1640.8,226.8
			L1640.8,226.8z"/>
		<circle class="st0" cx="1640.8" cy="204.4" r="3.3"/>
		<circle class="st0" cx="1640.8" cy="185.2" r="3.3"/>
		<path class="st0" d="M1626.3,188.5c1.8,0,3.3-1.5,3.2-3.3c0-1.8-1.5-3.3-3.3-3.2c-1.8,0-3.2,1.5-3.2,3.3
			C1623.1,187,1624.5,188.5,1626.3,188.5C1626.3,188.5,1626.3,188.5,1626.3,188.5z"/>
		<circle class="st0" cx="1611.8" cy="185.2" r="3.3"/>
		<path class="st0" d="M1626.3,207.6c1.8,0,3.3-1.5,3.2-3.3c0-1.8-1.5-3.3-3.3-3.2c-1.8,0-3.2,1.5-3.2,3.3
			C1623.1,206.2,1624.5,207.7,1626.3,207.6C1626.3,207.7,1626.3,207.7,1626.3,207.6z"/>
		<circle class="st0" cx="1611.8" cy="204.4" r="3.3"/>
		<path class="st0" d="M1626.3,226.8c1.8,0,3.3-1.5,3.3-3.3s-1.5-3.3-3.3-3.3c-1.8,0-3.3,1.5-3.3,3.3S1624.5,226.8,1626.3,226.8
			L1626.3,226.8z"/>
		<path class="st0" d="M1611.8,220.3c-1.8,0-3.3,1.5-3.3,3.3c0,1.8,1.5,3.3,3.3,3.3c1.8,0,3.3-1.5,3.3-3.3c0,0,0,0,0,0
			C1615.1,221.8,1613.7,220.3,1611.8,220.3C1611.8,220.3,1611.8,220.3,1611.8,220.3z"/>
		<path class="st0" d="M1591.7,458.3c-1.8,0-3.3,1.5-3.3,3.3c0,1.8,1.5,3.3,3.3,3.3c1.8,0,3.3-1.5,3.3-3.3c0,0,0,0,0,0
			C1594.9,459.8,1593.5,458.3,1591.7,458.3C1591.7,458.3,1591.7,458.3,1591.7,458.3z"/>
		<circle class="st0" cx="1591.7" cy="442.4" r="3.3"/>
		<circle class="st0" cx="1591.7" cy="423.2" r="3.3"/>
		<path class="st0" d="M1577.2,426.5c1.8,0,3.3-1.5,3.3-3.3c0-1.8-1.5-3.3-3.3-3.3c-1.8,0-3.3,1.5-3.3,3.3c0,0,0,0,0,0
			C1573.9,425.1,1575.4,426.5,1577.2,426.5C1577.2,426.5,1577.2,426.5,1577.2,426.5z"/>
		<circle class="st0" cx="1562.7" cy="423.2" r="3.3"/>
		<path class="st0" d="M1577.2,445.7c1.8,0,3.3-1.5,3.3-3.3c0-1.8-1.5-3.3-3.3-3.3c-1.8,0-3.3,1.5-3.3,3.3c0,0,0,0,0,0
			C1573.9,444.2,1575.4,445.7,1577.2,445.7C1577.2,445.7,1577.2,445.7,1577.2,445.7z"/>
		<circle class="st0" cx="1562.7" cy="442.4" r="3.3"/>
		<path class="st0" d="M1577.2,464.9c1.8,0,3.3-1.5,3.3-3.3c0-1.8-1.5-3.3-3.3-3.3c-1.8,0-3.3,1.5-3.3,3.3c0,0,0,0,0,0
			C1573.9,463.4,1575.4,464.9,1577.2,464.9L1577.2,464.9z"/>
		<path class="st0" d="M1562.7,458.3c-1.8,0-3.3,1.5-3.3,3.3c0,1.8,1.5,3.3,3.3,3.3c1.8,0,3.3-1.5,3.3-3.3c0,0,0,0,0,0
			C1566,459.8,1564.5,458.3,1562.7,458.3C1562.7,458.3,1562.7,458.3,1562.7,458.3z"/>
		<path class="st0" d="M1711.2,239.1c0-3.9-3.1-7-7-7s-7,3.1-7,7s3.1,7,7,7S1711.2,243,1711.2,239.1z"/>
		<path class="st0" d="M1451.7,395.8c-2,0-3.6,1.6-3.6,3.6s1.6,3.6,3.6,3.6s3.6-1.6,3.6-3.6c0,0,0,0,0,0
			C1455.3,397.4,1453.7,395.8,1451.7,395.8z"/>
		<path class="st0" d="M1713.3,329.6c2,0,3.6-1.6,3.6-3.6s-1.6-3.6-3.6-3.6s-3.6,1.6-3.6,3.6c0,0,0,0,0,0
			C1709.7,328,1711.3,329.6,1713.3,329.6z"/>
		<path class="st0" d="M1716.9,519c2,0,3.6-1.6,3.6-3.6s-1.6-3.6-3.6-3.6s-3.6,1.6-3.6,3.6l0,0C1713.3,517.4,1714.9,519,1716.9,519z
			"/>
		<path class="st0" d="M1656.2,304.3c-6.6,0-12,5.4-12,12s5.4,12,12,12s12-5.4,12-12S1662.9,304.3,1656.2,304.3z M1656.2,324.3
			c-4.4,0-8-3.6-8-8s3.6-8,8-8s8,3.6,8,8S1660.7,324.3,1656.2,324.3z"/>
		<path class="st0" d="M1783.8,342.9l6.7-23.5c-6.5-1.8-13.3,1.9-15.1,8.4C1773.5,334.3,1777.3,341.1,1783.8,342.9z"/>
		
			<rect x="1735.6" y="280.2" transform="matrix(0.2724 -0.9622 0.9622 0.2724 991.3322 1886.86)" class="st0" width="15.5" height="15.5"/>
		
			<rect x="1546.5" y="639.8" transform="matrix(0.2724 -0.9622 0.9622 0.2724 507.7561 1966.6097)" class="st0" width="15.5" height="15.5"/>
		<polygon class="st0" points="1718.9,616.2 1722.6,618 1731.6,587.2 1746.8,605.3 1748.7,601.3 1729.8,578.9 		"/>
		<circle class="st0" cx="1842.3" cy="250.2" r="66.3"/>
		<circle class="st0" cx="1759.8" cy="486" r="8.3"/>
		<path class="st0" d="M1416.9,94c2.9,0,5.3-2.4,5.3-5.3s-2.4-5.3-5.3-5.3c-2.9,0-5.3,2.4-5.3,5.3c0,0,0,0,0,0
			C1411.6,91.6,1414,94,1416.9,94L1416.9,94z"/>
		<path class="st0" d="M1816,149c0,4.8,3.9,8.7,8.7,8.7c4.8,0,8.7-3.9,8.7-8.7c0-4.8-3.9-8.7-8.7-8.7l0,0
			C1819.9,140.3,1816,144.2,1816,149z"/>
		<path class="st0" d="M1436.4,320.9c0-4.8-3.9-8.7-8.7-8.7c-4.8,0-8.7,3.9-8.7,8.7s3.9,8.7,8.7,8.7l0,0
			C1432.5,329.6,1436.4,325.7,1436.4,320.9z"/>
		<circle class="st0" cx="1516.1" cy="539.8" r="6.2"/>
		
			<ellipse transform="matrix(0.9871 -0.1602 0.1602 0.9871 -55.2752 278.3436)" class="st0" cx="1698.3" cy="481.9" rx="9.4" ry="9.5"/>
		<circle class="st0" cx="1792.2" cy="420" r="9.4"/>
		<circle class="st0" cx="1430.4" cy="632.2" r="10"/>
		<path class="st0" d="M1458.3,721.7c-1.9,0-3.4,1.5-3.4,3.4c0,1.9,1.5,3.4,3.4,3.4s3.4-1.5,3.4-3.4c0,0,0,0,0,0
			C1461.8,723.2,1460.2,721.7,1458.3,721.7z"/>
		<path class="st0" d="M1328.3,576.3c0,13.4,10.8,24.2,24.2,24.2c13.4,0,24.2-10.8,24.2-24.2c0-13.4-10.8-24.2-24.2-24.2
			c0,0,0,0,0,0C1339.2,552.1,1328.3,562.9,1328.3,576.3z M1352.5,560.1c8.9,0,16.2,7.2,16.2,16.2c0,8.9-7.2,16.1-16.2,16.1
			c-8.9,0-16.2-7.2-16.2-16.2c0,0,0,0,0,0C1336.4,567.3,1343.6,560.1,1352.5,560.1z"/>
		<path class="st0" d="M1571.6,185.8l-49.2,17.1l26.4,65.4L1571.6,185.8z M1530.1,206.8l32.6-11.3l-15.1,54.6L1530.1,206.8z"/>
		<path class="st0" d="M1415.4,372.6l-47.4,36.1l28.4,33.7L1415.4,372.6z M1375.3,409.2l31.4-23.9l-12.6,46.2L1375.3,409.2z"/>
		<polygon class="st0" points="1783.2,757.7 1758.2,769.2 1770.2,786.4 1751.1,795.2 1766.9,817.7 1775.7,811.5 1767.4,799.6 
			1786.5,790.8 1774.4,773.6 1787.7,767.5 		"/>
		<path class="st0" d="M1421.8,33.2c-3.9,14.6,4.7,29.6,19.3,33.5l14.2-52.8C1440.7,10.1,1425.7,18.7,1421.8,33.2z"/>
		<path class="st0" d="M1683.2,83.8l14.2-52.8c-14.5-4.1-29.6,4.3-33.8,18.8s4.3,29.6,18.8,33.8C1682.8,83.6,1683,83.7,1683.2,83.8z
			"/>
		<path class="st0" d="M1373.9,279.7c-14.6-3.9-29.6,4.7-33.5,19.3s4.7,29.6,19.3,33.5L1373.9,279.7z"/>
		<path class="st0" d="M1825.5,125.2l34.1-122.8c-33.9-9.4-69,10.4-78.5,44.4S1791.6,115.7,1825.5,125.2z"/>
		<path class="st0" d="M1384.1,669.4l-5.5,17.8c32,9.9,49.9,43.8,40,75.8c-9.9,32-43.8,49.9-75.8,40l-5.5,17.8
			c41.8,12.9,86.2-10.4,99.1-52.2S1425.9,682.4,1384.1,669.4L1384.1,669.4L1384.1,669.4z"/>
		<path class="st0" d="M1504.2,162.1l4.3-15.2c-27.3-7.9-43-36.4-35.1-63.6c7.8-27,35.9-42.7,63.1-35.2l4.3-15.2
			c-35.6-10.5-72.9,9.9-83.4,45.5s9.9,72.9,45.5,83.4C1503.3,161.8,1503.8,161.9,1504.2,162.1L1504.2,162.1z"/>
		<path class="st0" d="M1688.3,176.6l-4.3,15.2c35.6,10.5,72.9-9.9,83.4-45.5c10.5-35.6-9.9-72.9-45.5-83.4
			c-0.4-0.1-0.9-0.3-1.3-0.4l-4.3,15.2c27.3,7.7,43.2,36.1,35.4,63.4C1744,168.5,1715.6,184.4,1688.3,176.6L1688.3,176.6z"/>
		<path class="st0" d="M1499.3,623.6l10.8-39.5l-39.5-10.8l-10.8,39.5L1499.3,623.6z M1473.5,579.2l31.6,8.1l-8.7,30.5l-30.7-7.8
			L1473.5,579.2z"/>
		<path class="st0" d="M1493,229.8l-20-5.3l-5.3,20l20,5.3L1493,229.8z M1470.3,243.2l4-16.1l16.1,4l-4,16.1L1470.3,243.2z"/>
		<path class="st0" d="M1664,121.2l-20-5.3l-5.3,20l20,5.3L1664,121.2z M1641.3,134.5l4-16.1l16.1,4l-4,16.1L1641.3,134.5z"/>
		<path class="st0" d="M1744.9,201.8l-5.3,20l20,5.3l5.3-20L1744.9,201.8z M1758.3,224.5l-16.1-4l4-16.1l16.1,4L1758.3,224.5z"/>
		<path class="st0" d="M1650.4,685.1l20,5.3l5.3-20l-20-5.3L1650.4,685.1z M1673.1,671.7l-4,16.1l-16.1-4l4-16.1L1673.1,671.7z"/>
		<polygon class="st0" points="1497.8,755.1 1490.9,761.2 1502.2,774.1 1479.4,781.9 1499.9,805.2 1506.8,799.1 1495.4,786.2 
			1518.3,778.4 		"/>
		<polygon class="st0" points="1869.3,572.2 1847.2,554.4 1839.3,581.7 		"/>
		<polygon class="st0" points="1385.5,631.4 1356.6,640.8 1376.5,663.8 		"/>
		<polygon class="st0" points="1873.5,821.3 1888.1,754.1 1820.5,766.4 		"/>
		<path class="st0" d="M1489.8,692l15.2-4.9l-14.3-16.7l-4.8,17.1l0,0l-6.6,23.5l20.9-6.8L1489.8,692z M1492.3,677.8l6.5,7.6
			l-9.5,3.1L1492.3,677.8z M1487.5,694.9l6.5,7.6l-9.5,3.1L1487.5,694.9z"/>
		<polygon class="st0" points="1547.2,736.5 1551.1,737.7 1555.3,720.4 1551.7,719.4 		"/>
		<polygon class="st0" points="1737.7,372.6 1733.2,389.8 1737.1,390.9 1741.4,373.7 		"/>
		<polygon class="st0" points="1475.3,313.5 1479.6,296.3 1475.9,295.2 1471.4,312.4 		"/>
		<path class="st0" d="M1859.4,686.3c0-26.1-21.1-47.4-47.3-47.4c-26.1,0-47.4,21.1-47.4,47.3c0,12.7,5.1,24.9,14.2,33.8l-3.5,12.5
			l3.6,1.2l3-10.8c20.1,16.6,49.9,13.8,66.6-6.3C1855.6,708,1859.4,697.3,1859.4,686.3L1859.4,686.3z M1812.1,728.5
			c-10.6,0-20.8-4-28.6-11.2l4.2-15.3l-3.3-1.3l-3.8,13.6c-15.5-17.4-13.8-44.1,3.6-59.6s44.1-13.8,59.6,3.6
			c15.5,17.4,13.8,44.1-3.6,59.6C1832.4,724.8,1822.4,728.5,1812.1,728.5z"/>
		<path class="st0" d="M1430.4,515.4l-37.5,11.5l25.8,31.1L1430.4,515.4z M1399.2,528.7l25.7-7.9l-7.6,29.1L1399.2,528.7z"/>
		<path class="st0" d="M1800.5,539.8l10.7-37.9l-33.8,10.9L1800.5,539.8z M1799,532.9l-15.8-18.5l23.2-7.5L1799,532.9z"/>
		<polygon class="st0" points="1792.8,619.3 1831.3,614.8 1803.2,581.7 		"/>
		<polygon class="st0" points="1577.2,333.1 1602.2,330.1 1583.9,308.6 		"/>
		<polygon class="st0" points="1599.9,116.4 1594.1,114.7 1592,122 1584.6,119.9 1582.9,125.7 1590.3,127.8 1588.1,135.1 
			1593.9,136.8 1596.1,129.5 1603.4,131.6 1605.1,125.9 1597.7,123.7 		"/>
		<polygon class="st0" points="1736.5,672.8 1730.1,670.9 1727.7,679 1719.7,676.7 1717.8,683 1725.9,685.4 1723.5,693.5 
			1729.9,695.3 1732.3,687.2 1740.3,689.6 1742.2,683.2 1734.1,680.9 		"/>
		<polygon class="st0" points="1830.1,354.8 1826.9,365.7 1815.9,362.5 1813.4,371.2 1824.4,374.4 1821.2,385.3 1829.8,387.8 
			1833,376.9 1844,380.1 1846.5,371.4 1835.5,368.2 1838.7,357.3 		"/>
		<polygon class="st0" points="1639,557.4 1635.8,568.4 1644.4,570.9 1647.6,560 1658.6,563.2 1661.1,554.5 1650.2,551.3 
			1653.3,540.4 1644.7,537.8 1641.5,548.8 1630.6,545.6 1628.1,554.2 		"/>
		<polygon class="st0" points="1375,72.8 1384.8,75.6 1388.4,63.2 1400.8,66.8 1403.7,57.1 1391.3,53.4 1394.9,41 1385.1,38.2 
			1381.5,50.6 1369.1,47 1366.2,56.8 1378.6,60.4 		"/>
		<circle class="st0" cx="1362.8" cy="744.9" r="45.2"/>
		
			<ellipse transform="matrix(0.8506 -0.5258 0.5258 0.8506 116.5418 743.1753)" class="st0" cx="1366.2" cy="166.5" rx="38.3" ry="38.3"/>
		<path class="st0" d="M1430,164.4c0-42.8-34.7-77.5-77.5-77.5c-42.8,0-77.5,34.7-77.5,77.5c0,42.8,34.7,77.5,77.5,77.5c0,0,0,0,0,0
			C1395.3,241.8,1430,207.2,1430,164.4z M1283.4,164.4c0-38.2,30.9-69.1,69.1-69.1s69.1,30.9,69.1,69.1s-30.9,69.1-69.1,69.1
			c0,0,0,0,0,0C1314.4,233.5,1283.5,202.6,1283.4,164.4L1283.4,164.4z"/>
		<path class="st0" d="M1483.6,95.2c0,23.7,19.2,42.9,42.9,42.9c23.7,0,42.9-19.2,42.9-42.9s-19.2-42.9-42.9-42.9c0,0,0,0,0,0
			C1502.8,52.3,1483.6,71.5,1483.6,95.2z M1564.7,95.2c0,21.1-17.1,38.3-38.2,38.3c-21.1,0-38.3-17.1-38.3-38.2s17.1-38.3,38.2-38.3
			c0,0,0,0,0,0C1547.5,56.9,1564.6,74,1564.7,95.2z"/>
		
			<rect x="1625.3" y="733.9" transform="matrix(0.2813 -0.9596 0.9596 0.2813 452.6326 2164.5239)" class="st0" width="92.2" height="92.2"/>
		<polygon class="st0" points="1585,767.7 1577.3,765.4 1574.5,775.2 1564.7,772.3 1562.5,780 1572.2,782.8 1569.4,792.6 
			1577.1,794.8 1579.9,785.1 1589.6,787.9 1591.9,780.2 1582.1,777.4 		"/>
		<polygon class="st0" points="1461.4,477.6 1467.7,479.4 1465.9,485.7 1470.8,487.1 1472.6,480.9 1478.9,482.7 1480.3,477.7 
			1474.1,475.9 1475.9,469.6 1471,468.2 1469.1,474.5 1462.9,472.6 		"/>
	</g>
</g>
</svg>
