<svg width="476" height="988" viewBox="0 0 476 988" fill="none" xmlns="http://www.w3.org/2000/svg">
<g opacity="0.01" clip-path="url(#clip0_24_255)">
<path d="M452.001 752.083C452.004 751.29 451.77 750.513 451.331 749.853C450.892 749.192 450.267 748.676 449.534 748.372C448.802 748.067 447.995 747.986 447.217 748.141C446.439 748.295 445.724 748.677 445.163 749.238C444.603 749.799 444.221 750.514 444.067 751.292C443.912 752.071 443.993 752.877 444.298 753.61C444.602 754.342 445.117 754.968 445.778 755.407C446.439 755.847 447.215 756.08 448.008 756.077C449.067 756.077 450.083 755.657 450.832 754.907C451.58 754.158 452.001 753.142 452.001 752.083Z" fill="white"/>
<path d="M452.001 775.571C452.004 774.778 451.77 774.001 451.331 773.341C450.892 772.68 450.267 772.164 449.534 771.86C448.802 771.555 447.995 771.474 447.217 771.629C446.439 771.783 445.724 772.165 445.163 772.726C444.603 773.287 444.221 774.002 444.067 774.78C443.912 775.559 443.993 776.365 444.298 777.098C444.602 777.83 445.117 778.456 445.778 778.895C446.439 779.335 447.215 779.568 448.008 779.565C449.067 779.565 450.083 779.145 450.832 778.396C451.58 777.646 452.001 776.63 452.001 775.571Z" fill="white"/>
<path d="M452.001 799.047C452.004 798.253 451.77 797.477 451.331 796.816C450.892 796.156 450.267 795.64 449.534 795.335C448.802 795.031 447.995 794.95 447.217 795.104C446.439 795.259 445.724 795.641 445.163 796.202C444.603 796.763 444.221 797.478 444.067 798.256C443.912 799.034 443.993 799.841 444.298 800.574C444.602 801.306 445.117 801.932 445.778 802.371C446.439 802.81 447.215 803.044 448.008 803.041C449.067 803.041 450.083 802.62 450.832 801.871C451.58 801.122 452.001 800.106 452.001 799.047Z" fill="white"/>
<path d="M434.265 799.047C434.267 798.253 434.034 797.477 433.595 796.816C433.155 796.156 432.53 795.64 431.798 795.335C431.065 795.031 430.259 794.95 429.481 795.104C428.703 795.259 427.988 795.641 427.427 796.202C426.866 796.763 426.484 797.478 426.33 798.256C426.176 799.034 426.256 799.841 426.561 800.574C426.866 801.306 427.381 801.932 428.041 802.371C428.702 802.81 429.478 803.044 430.271 803.041C431.33 803.041 432.346 802.62 433.095 801.871C433.844 801.122 434.265 800.106 434.265 799.047Z" fill="white"/>
<path d="M416.528 799.047C416.53 798.253 416.297 797.477 415.858 796.816C415.419 796.156 414.793 795.64 414.061 795.335C413.329 795.031 412.522 794.95 411.744 795.104C410.966 795.259 410.251 795.641 409.69 796.202C409.129 796.763 408.748 797.478 408.593 798.256C408.439 799.034 408.52 799.841 408.824 800.574C409.129 801.306 409.644 801.932 410.305 802.371C410.965 802.81 411.742 803.044 412.535 803.041C413.594 803.041 414.609 802.62 415.358 801.871C416.107 801.122 416.528 800.106 416.528 799.047Z" fill="white"/>
<path d="M434.265 775.571C434.267 774.778 434.034 774.001 433.595 773.341C433.155 772.68 432.53 772.164 431.798 771.86C431.065 771.555 430.259 771.474 429.481 771.629C428.703 771.783 427.988 772.165 427.427 772.726C426.866 773.287 426.484 774.002 426.33 774.78C426.176 775.559 426.256 776.365 426.561 777.098C426.866 777.83 427.381 778.456 428.041 778.895C428.702 779.335 429.478 779.568 430.271 779.565C430.796 779.565 431.315 779.462 431.799 779.261C432.284 779.061 432.724 778.766 433.095 778.396C433.466 778.025 433.76 777.584 433.961 777.1C434.161 776.615 434.265 776.096 434.265 775.571Z" fill="white"/>
<path d="M416.528 775.571C416.53 774.778 416.297 774.001 415.858 773.341C415.419 772.68 414.793 772.164 414.061 771.86C413.329 771.555 412.522 771.474 411.744 771.629C410.966 771.783 410.251 772.165 409.69 772.726C409.129 773.287 408.748 774.002 408.593 774.78C408.439 775.559 408.52 776.365 408.824 777.098C409.129 777.83 409.644 778.456 410.305 778.895C410.965 779.335 411.742 779.568 412.535 779.565C413.594 779.565 414.609 779.145 415.358 778.396C416.107 777.646 416.528 776.63 416.528 775.571Z" fill="white"/>
<path d="M434.265 752.083C434.267 751.29 434.034 750.513 433.595 749.853C433.155 749.192 432.53 748.676 431.798 748.372C431.065 748.067 430.259 747.986 429.481 748.141C428.703 748.295 427.988 748.677 427.427 749.238C426.866 749.799 426.484 750.514 426.33 751.292C426.176 752.071 426.256 752.877 426.561 753.61C426.866 754.342 427.381 754.968 428.041 755.407C428.702 755.847 429.478 756.08 430.271 756.077C431.33 756.077 432.346 755.657 433.095 754.907C433.844 754.158 434.265 753.142 434.265 752.083Z" fill="white"/>
<path d="M416.528 752.083C416.53 751.29 416.297 750.513 415.858 749.853C415.419 749.192 414.793 748.676 414.061 748.372C413.329 748.067 412.522 747.986 411.744 748.141C410.966 748.295 410.251 748.677 409.69 749.238C409.129 749.799 408.748 750.514 408.593 751.292C408.439 752.071 408.52 752.877 408.824 753.61C409.129 754.342 409.644 754.968 410.305 755.407C410.965 755.847 411.742 756.08 412.535 756.077C413.594 756.077 414.609 755.657 415.358 754.907C416.107 754.158 416.528 753.142 416.528 752.083Z" fill="white"/>
<path d="M391.797 460.425C391.795 459.635 391.559 458.864 391.118 458.209C390.678 457.553 390.054 457.043 389.324 456.743C388.594 456.443 387.791 456.365 387.018 456.521C386.244 456.676 385.533 457.058 384.976 457.617C384.419 458.176 384.04 458.888 383.887 459.662C383.734 460.436 383.813 461.239 384.116 461.968C384.419 462.697 384.93 463.32 385.587 463.759C386.243 464.197 387.015 464.431 387.804 464.431C388.329 464.431 388.85 464.327 389.335 464.126C389.82 463.924 390.261 463.629 390.632 463.257C391.003 462.885 391.297 462.443 391.497 461.957C391.697 461.471 391.799 460.95 391.797 460.425Z" fill="white"/>
<path d="M383.811 483.913C383.811 486.119 385.599 487.907 387.804 487.907C390.009 487.907 391.797 486.119 391.797 483.913C391.797 481.707 390.009 479.918 387.804 479.918C385.599 479.918 383.811 481.707 383.811 483.913Z" fill="white"/>
<path d="M383.811 507.401C383.811 509.607 385.599 511.395 387.804 511.395C390.009 511.395 391.797 509.607 391.797 507.401C391.797 505.195 390.009 503.406 387.804 503.406C385.599 503.406 383.811 505.195 383.811 507.401Z" fill="white"/>
<path d="M374.061 507.437C374.061 506.647 373.827 505.875 373.388 505.218C372.949 504.561 372.325 504.049 371.596 503.747C370.866 503.445 370.063 503.366 369.288 503.52C368.514 503.674 367.802 504.054 367.244 504.613C366.685 505.172 366.305 505.883 366.151 506.658C365.997 507.433 366.076 508.236 366.378 508.966C366.681 509.696 367.192 510.32 367.849 510.759C368.506 511.197 369.278 511.432 370.067 511.432C371.127 511.432 372.142 511.011 372.891 510.262C373.64 509.513 374.061 508.497 374.061 507.437Z" fill="white"/>
<path d="M348.338 507.401C348.338 509.607 350.126 511.395 352.331 511.395C354.536 511.395 356.324 509.607 356.324 507.401C356.324 505.195 354.536 503.406 352.331 503.406C350.126 503.406 348.338 505.195 348.338 507.401Z" fill="white"/>
<path d="M366.074 483.913C366.074 484.703 366.308 485.475 366.747 486.132C367.186 486.789 367.81 487.301 368.539 487.603C369.269 487.905 370.072 487.984 370.847 487.83C371.621 487.676 372.333 487.296 372.891 486.737C373.45 486.178 373.83 485.467 373.984 484.692C374.138 483.917 374.059 483.114 373.757 482.384C373.454 481.654 372.943 481.03 372.286 480.591C371.629 480.153 370.857 479.918 370.067 479.918C369.008 479.918 367.993 480.339 367.244 481.088C366.495 481.837 366.074 482.853 366.074 483.913Z" fill="white"/>
<path d="M348.338 483.913C348.338 486.119 350.126 487.907 352.331 487.907C354.536 487.907 356.324 486.119 356.324 483.913C356.324 481.707 354.536 479.918 352.331 479.918C350.126 479.918 348.338 481.707 348.338 483.913Z" fill="white"/>
<path d="M374.061 460.425C374.058 459.635 373.822 458.864 373.382 458.209C372.941 457.553 372.317 457.043 371.587 456.743C370.857 456.443 370.055 456.365 369.281 456.521C368.507 456.676 367.797 457.058 367.24 457.617C366.682 458.176 366.303 458.888 366.15 459.662C365.997 460.436 366.077 461.239 366.379 461.968C366.682 462.697 367.194 463.32 367.85 463.759C368.507 464.197 369.278 464.431 370.067 464.431C370.593 464.431 371.113 464.327 371.598 464.126C372.084 463.924 372.524 463.629 372.895 463.257C373.266 462.885 373.56 462.443 373.76 461.957C373.96 461.471 374.062 460.95 374.061 460.425Z" fill="white"/>
<path d="M356.324 460.425C356.322 459.635 356.085 458.864 355.645 458.209C355.205 457.553 354.58 457.043 353.851 456.743C353.121 456.443 352.318 456.365 351.544 456.521C350.771 456.676 350.06 457.058 349.503 457.617C348.946 458.176 348.567 458.888 348.414 459.662C348.26 460.436 348.34 461.239 348.643 461.968C348.945 462.697 349.457 463.32 350.114 463.759C350.77 464.197 351.542 464.431 352.331 464.431C352.856 464.431 353.377 464.327 353.862 464.126C354.347 463.924 354.788 463.629 355.159 463.257C355.53 462.885 355.824 462.443 356.024 461.957C356.224 461.471 356.326 460.95 356.324 460.425Z" fill="white"/>
<path d="M212.006 536.647C212.006 537.515 212.263 538.363 212.745 539.084C213.227 539.806 213.912 540.368 214.713 540.7C215.514 541.032 216.396 541.119 217.247 540.949C218.097 540.78 218.879 540.362 219.492 539.749C220.105 539.136 220.523 538.354 220.692 537.503C220.861 536.652 220.775 535.77 220.443 534.969C220.111 534.167 219.549 533.482 218.828 533C218.106 532.518 217.259 532.261 216.391 532.261C215.815 532.261 215.245 532.374 214.713 532.595C214.181 532.815 213.698 533.138 213.29 533.546C212.883 533.953 212.56 534.437 212.34 534.969C212.12 535.501 212.006 536.071 212.006 536.647Z" fill="white"/>
<path d="M466.908 623.701C464.001 623.701 461.159 624.564 458.742 626.179C456.325 627.795 454.441 630.091 453.328 632.778C452.216 635.464 451.925 638.421 452.492 641.273C453.059 644.125 454.459 646.745 456.515 648.801C458.57 650.857 461.189 652.258 464.041 652.825C466.892 653.392 469.847 653.101 472.533 651.988C475.219 650.875 477.515 648.991 479.13 646.573C480.745 644.155 481.607 641.312 481.607 638.404C481.607 634.505 480.058 630.765 477.302 628.008C474.545 625.25 470.807 623.701 466.908 623.701ZM476.707 638.404C476.707 640.343 476.133 642.238 475.056 643.85C473.979 645.462 472.449 646.718 470.658 647.46C468.868 648.202 466.897 648.396 464.997 648.018C463.096 647.64 461.35 646.706 459.979 645.335C458.609 643.965 457.675 642.218 457.297 640.317C456.919 638.415 457.113 636.444 457.855 634.653C458.597 632.862 459.853 631.331 461.464 630.254C463.076 629.177 464.97 628.602 466.908 628.602C469.507 628.602 472 629.635 473.837 631.473C475.675 633.312 476.707 635.805 476.707 638.404Z" fill="white"/>
<path d="M356.318 236.439L351.185 218.184L332.935 223.318L338.068 241.573L356.318 236.439Z" fill="white"/>
<path d="M180.257 917.271C180.257 915.987 179.876 914.731 179.163 913.664C178.449 912.596 177.435 911.763 176.249 911.272C175.063 910.78 173.757 910.652 172.498 910.902C171.239 911.153 170.082 911.771 169.174 912.68C168.266 913.588 167.648 914.745 167.397 916.004C167.147 917.264 167.275 918.57 167.767 919.756C168.258 920.943 169.09 921.957 170.158 922.671C171.225 923.384 172.481 923.765 173.765 923.765C174.618 923.767 175.462 923.6 176.251 923.274C177.039 922.948 177.756 922.47 178.359 921.867C178.962 921.263 179.44 920.547 179.766 919.758C180.091 918.97 180.258 918.125 180.257 917.271Z" fill="white"/>
<path d="M197.687 632.878C197.687 630.763 197.06 628.695 195.885 626.936C194.71 625.177 193.04 623.806 191.086 622.996C189.132 622.187 186.982 621.975 184.907 622.388C182.833 622.8 180.928 623.819 179.432 625.315C177.937 626.811 176.918 628.717 176.506 630.792C176.093 632.867 176.305 635.017 177.114 636.972C177.924 638.926 179.294 640.597 181.053 641.772C182.811 642.948 184.879 643.575 186.994 643.575C188.398 643.575 189.788 643.298 191.086 642.761C192.383 642.223 193.562 641.435 194.555 640.442C195.548 639.449 196.336 638.27 196.873 636.972C197.41 635.674 197.687 634.283 197.687 632.878Z" fill="white"/>
<path d="M287.606 365.204C287.954 369.418 291.653 372.553 295.867 372.204C300.08 371.855 303.214 368.155 302.865 363.941C302.516 359.726 298.818 356.592 294.604 356.94C290.39 357.289 287.257 360.989 287.606 365.204Z" fill="white"/>
<path d="M177.991 251.36C177.991 258.134 183.48 263.625 190.252 263.625C197.023 263.625 202.513 258.134 202.513 251.36C202.513 244.586 197.023 239.095 190.252 239.095C183.48 239.095 177.991 244.586 177.991 251.36Z" fill="white"/>
<path d="M224.488 133.381C223.937 133.379 223.391 133.486 222.881 133.696C222.371 133.906 221.908 134.214 221.518 134.604C221.127 134.993 220.818 135.455 220.607 135.965C220.395 136.474 220.286 137.02 220.286 137.571C220.286 138.686 220.729 139.755 221.517 140.543C222.305 141.331 223.374 141.774 224.488 141.774C225.6 141.77 226.665 141.326 227.451 140.538C228.236 139.751 228.677 138.684 228.677 137.571C228.677 136.46 228.236 135.394 227.45 134.608C226.664 133.822 225.599 133.381 224.488 133.381Z" fill="white"/>
<path d="M124.548 319.974C124.551 314.104 122.812 308.365 119.553 303.483C116.294 298.601 111.661 294.795 106.24 292.548C100.818 290.3 94.8522 289.711 89.0962 290.856C83.3402 292.001 78.0528 294.827 73.9031 298.978C69.7533 303.129 66.9276 308.418 65.7833 314.175C64.639 319.933 65.2275 325.901 67.4744 331.324C69.7214 336.747 73.5258 341.381 78.4064 344.641C83.287 347.901 89.0245 349.64 94.8931 349.637C102.755 349.628 110.292 346.499 115.852 340.938C121.411 335.378 124.538 327.838 124.548 319.974ZM75.0498 319.974C75.0473 316.06 76.2055 312.233 78.3777 308.977C80.5499 305.722 83.6387 303.183 87.2532 301.684C90.8677 300.184 94.8455 299.791 98.6837 300.553C102.522 301.315 106.048 303.199 108.816 305.965C111.584 308.732 113.469 312.258 114.233 316.097C114.997 319.936 114.606 323.915 113.109 327.531C111.613 331.148 109.077 334.239 105.824 336.414C102.57 338.589 98.745 339.75 94.832 339.75C89.5895 339.743 84.5635 337.658 80.8553 333.951C77.1472 330.244 75.0595 325.218 75.0498 319.974Z" fill="white"/>
<path d="M363.196 798.324L335.195 697.241L302.882 777.36L363.196 798.324ZM333.798 719.589L352.331 786.464L312.436 772.594L333.798 719.589Z" fill="white"/>
<path d="M113.842 525.24L171.964 569.46L148.544 483.913L113.842 525.24ZM122.821 524.591L145.812 497.268L161.271 553.85L122.821 524.591Z" fill="white"/>
<path d="M203.358 944.215C194.787 946.53 187.486 952.156 183.061 959.856C178.637 967.556 177.452 976.699 179.767 985.273C182.081 993.847 187.706 1001.15 195.404 1005.58C203.102 1010 212.242 1011.19 220.813 1008.87L203.358 944.215Z" fill="white"/>
<path d="M517.411 988.017L499.98 923.361C495.684 924.458 491.648 926.397 488.107 929.067C484.565 931.737 481.59 935.084 479.353 938.914C477.116 942.744 475.662 946.98 475.075 951.377C474.488 955.774 474.781 960.243 475.935 964.526C477.09 968.808 479.083 972.819 481.8 976.325C484.517 979.83 487.904 982.761 491.762 984.946C495.621 987.132 499.876 988.529 504.279 989.056C508.682 989.583 513.145 989.23 517.411 988.017Z" fill="white"/>
<path d="M103.59 618.69C99.3467 619.835 95.3703 621.805 91.8878 624.487C88.4054 627.169 85.4852 630.51 83.2939 634.321C81.1027 638.132 79.6833 642.337 79.1168 646.697C78.5503 651.057 78.8478 655.485 79.9923 659.73C81.1368 663.974 83.1059 667.952 85.7871 671.435C88.4684 674.919 91.8093 677.84 95.6191 680.032C99.4289 682.224 103.633 683.643 107.991 684.21C112.35 684.777 116.777 684.479 121.02 683.334L103.59 618.69Z" fill="white"/>
<path d="M197.54 84.383C189.897 59.8043 172.819 39.262 150.053 27.2625C127.287 15.2631 100.692 12.7864 76.1032 20.3759L82.8647 42.1854C101.668 36.3848 122.003 38.2805 139.411 47.4566C156.819 56.6327 169.878 72.3402 175.724 91.1341C181.521 109.951 179.617 130.299 170.432 147.713C161.246 165.128 145.528 178.185 126.728 184.02L133.49 205.842C158.068 198.206 178.615 181.13 190.622 158.36C202.63 135.59 205.118 108.986 197.54 84.383Z" fill="white"/>
<path d="M325.481 985.849L320.214 967.225C304.188 971.666 287.056 969.583 272.561 961.43C258.066 953.276 247.386 939.716 242.855 923.711C238.324 907.706 240.309 890.558 248.378 876.013C256.447 861.467 269.942 850.708 285.917 846.084L280.649 827.448C270.152 830.302 260.325 835.209 251.736 841.885C243.146 848.562 235.966 856.876 230.609 866.346C225.252 875.816 221.826 886.255 220.528 897.058C219.23 907.861 220.086 918.815 223.047 929.285C226.008 939.755 231.015 949.534 237.778 958.056C244.541 966.578 252.926 973.675 262.449 978.935C271.971 984.195 282.441 987.514 293.254 988.701C304.067 989.888 315.008 988.918 325.444 985.849L325.481 985.849Z" fill="white"/>
<path d="M287.889 310.307L274.623 261.885L226.215 275.154L239.493 323.576L287.889 310.307ZM271.034 269.089L281.764 306.496L243.045 316.396L233.417 278.732L271.034 269.089Z" fill="white"/>
<path d="M266.955 744.474L260.451 719.969L235.953 726.488L242.457 750.993L266.955 744.474ZM258.871 723.192L263.77 742.906L244.074 747.807L239.174 728.093L258.871 723.192Z" fill="white"/>
<path d="M469.86 853.068L445.362 859.574L451.879 884.079L476.377 877.561L469.86 853.068ZM448.584 861.155L468.292 856.254L473.192 875.956L453.496 880.857L448.584 861.155Z" fill="white"/>
<path d="M484.167 180.051L459.669 186.557L466.186 211.062L490.684 204.556L484.167 180.051ZM462.891 188.137L482.599 183.236L487.499 202.938L467.79 207.839L462.891 188.137Z" fill="white"/>
<path d="M275.395 39.4898L250.284 68.0136L278.261 77.5093L264.334 93.3396L272.798 100.789L297.908 72.253L269.932 62.7696L283.859 46.9393L275.395 39.4898Z" fill="white"/>
<path d="M99.9152 240.811L135.241 252.402L124.205 212.654L99.9152 240.811Z" fill="white"/>
<path d="M281.642 184.118L263.011 178.066L275.774 163.142L250.211 154.872L258.271 183.616L264.15 204.543L281.642 184.118ZM256.556 161.525L268.229 165.311L260.243 174.623L256.556 161.525ZM262.435 182.44L274.096 186.238L266.11 195.55L262.435 182.44Z" fill="white"/>
<path d="M343.316 143.281L338.085 122.17L333.32 123.542L338.82 144.58L343.316 143.281Z" fill="white"/>
<path d="M250.542 663.007L245.311 641.896L240.534 643.269L246.046 664.306L250.542 663.007Z" fill="white"/>
<path d="M144.306 380.465L190.191 394.518L175.786 342.347L144.306 380.465ZM152.096 378.198L174.267 352.088L183.539 387.828L152.096 378.198Z" fill="white"/>
<path d="M400.727 621.496L370.068 617.881L378.274 647.876L400.727 621.496Z" fill="white"/>
<path d="M397.848 883.381L395.239 874.4L404.205 871.79L402.148 864.708L393.181 867.33L390.56 858.349L383.492 860.42L386.101 869.389L377.135 872.011L379.193 879.08L388.159 876.47L390.781 885.439L397.848 883.381Z" fill="white"/>
<path d="M469.774 336L456.362 339.909L452.454 326.492L441.871 329.568L445.791 342.984L432.378 346.905L435.453 357.479L448.865 353.57L452.773 366.987L463.356 363.899L459.449 350.483L472.861 346.574L469.774 336Z" fill="white"/>
<path d="M146.756 975.704L142.321 960.51L157.51 956.087L154.019 944.104L138.83 948.527L134.409 933.334L122.429 936.826L126.851 952.019L111.662 956.455L115.165 968.426L130.342 964.002L134.764 979.195L146.756 975.704Z" fill="white"/>
<path d="M78.2626 160.449C104.296 176.545 138.444 168.483 154.535 142.442C170.626 116.402 162.566 82.2436 136.533 66.1481C110.5 50.0526 76.3516 58.1146 60.2606 84.1551C44.1697 110.196 52.2294 144.354 78.2626 160.449Z" fill="white"/>
<path d="M66.7905 835.656C74.3107 860.492 100.535 874.528 125.365 867.006C150.195 859.484 164.227 833.252 156.707 808.415C149.187 783.578 122.962 769.542 98.1321 777.064C73.3024 784.586 59.2703 810.819 66.7905 835.656Z" fill="white"/>
<path d="M189.774 824.557C189.774 805.786 184.209 787.436 173.784 771.829C163.358 756.221 148.54 744.057 131.203 736.873C113.865 729.69 94.7879 727.81 76.3828 731.472C57.9777 735.134 41.0716 744.174 27.8023 757.447C14.5329 770.72 5.49646 787.631 1.83546 806.041C-1.82555 824.451 0.0533092 843.534 7.23463 860.876C14.4159 878.218 26.5771 893.041 42.1802 903.47C57.7833 913.898 76.1275 919.464 94.8932 919.464C120.048 919.435 144.165 909.427 161.952 891.634C179.739 873.842 189.745 849.719 189.774 824.557ZM10.2402 824.557C10.2402 807.809 15.2051 791.438 24.5069 777.513C33.8087 763.587 47.0297 752.734 62.498 746.325C77.9663 739.916 94.9872 738.239 111.408 741.507C127.829 744.774 142.913 752.839 154.752 764.681C166.591 776.523 174.653 791.611 177.92 808.037C181.186 824.463 179.51 841.488 173.102 856.961C166.695 872.434 155.845 885.659 141.924 894.963C128.003 904.267 111.636 909.234 94.8932 909.234C72.4488 909.211 50.9302 900.282 35.0596 884.407C19.189 868.532 10.2629 847.007 10.2402 824.557Z" fill="white"/>
<path d="M255.38 909.417C255.38 919.806 258.46 929.962 264.23 938.6C270 947.237 278.201 953.97 287.796 957.946C297.391 961.921 307.95 962.961 318.136 960.935C328.322 958.908 337.679 953.905 345.023 946.559C352.367 939.213 357.368 929.854 359.394 919.665C361.42 909.476 360.38 898.914 356.406 889.316C352.431 879.718 345.701 871.515 337.065 865.743C328.43 859.972 318.277 856.891 307.891 856.891C293.968 856.904 280.619 862.442 270.774 872.29C260.929 882.138 255.393 895.49 255.38 909.417ZM354.732 909.417C354.732 918.687 351.983 927.749 346.835 935.456C341.686 943.163 334.368 949.17 325.806 952.717C317.244 956.264 307.823 957.191 298.734 955.382C289.645 953.572 281.297 949.108 274.745 942.552C268.193 935.997 263.732 927.645 261.925 918.553C260.119 909.461 261.049 900.038 264.597 891.474C268.145 882.911 274.152 875.592 281.858 870.444C289.565 865.296 298.624 862.549 307.891 862.552C320.312 862.565 332.221 867.507 341.002 876.293C349.784 885.08 354.722 896.993 354.732 909.417Z" fill="white"/>
<path d="M555.701 108.414L523.91 -0.050209L415.477 31.7491L447.268 140.213L555.701 108.414Z" fill="white"/>
<path d="M360.513 54.8667L363.992 66.8007L352.061 70.2804L354.805 79.6903L366.723 76.2106L370.202 88.1445L379.609 85.4L376.143 73.466L388.061 69.9986L385.317 60.5886L373.399 64.0561L369.92 52.1344L360.513 54.8667Z" fill="white"/>
<path d="M246.009 450.573L243.78 442.891L251.46 440.649L249.696 434.596L242.004 436.826L239.775 429.144L233.711 430.908L235.953 438.603L228.261 440.845L230.037 446.898L237.717 444.656L239.958 452.35L246.009 450.573Z" fill="white"/>
<path d="M60.336 680.144C58.288 680.144 56.848 679.024 56.752 677.424H58.256C58.336 678.272 59.088 678.912 60.32 678.912C61.472 678.912 62.112 678.336 62.112 677.616C62.112 675.664 56.928 676.8 56.928 673.536C56.928 672.192 58.192 671.088 60.144 671.088C62.08 671.088 63.36 672.128 63.456 673.84H62C61.936 672.96 61.264 672.32 60.096 672.32C59.024 672.32 58.384 672.832 58.384 673.536C58.384 675.616 63.472 674.48 63.536 677.616C63.536 679.056 62.272 680.144 60.336 680.144ZM65.5914 668.16H67.0474V680H65.5914V668.16ZM68.9849 675.6C68.9849 672.848 70.7609 671.088 73.2569 671.088C75.4329 671.088 76.8569 672.208 77.3049 674.048H75.7369C75.4329 672.992 74.5529 672.32 73.2569 672.32C71.6569 672.32 70.4729 673.456 70.4729 675.6C70.4729 677.776 71.6569 678.912 73.2569 678.912C74.5529 678.912 75.4169 678.288 75.7369 677.184H77.3049C76.8569 678.928 75.4329 680.144 73.2569 680.144C70.7609 680.144 68.9849 678.384 68.9849 675.6ZM85.6636 675.04C85.6636 673.248 84.6876 672.336 83.2156 672.336C81.7276 672.336 80.7036 673.264 80.7036 675.152V680H79.2476V671.232H80.7036V672.48C81.2796 671.568 82.3356 671.072 83.5196 671.072C85.5516 671.072 87.1036 672.32 87.1036 674.832V680H85.6636V675.04ZM88.938 675.584C88.938 672.848 90.746 671.088 93.098 671.088C94.73 671.088 95.85 671.92 96.362 672.832V671.232H97.834V680H96.362V678.368C95.834 679.312 94.698 680.144 93.082 680.144C90.746 680.144 88.938 678.304 88.938 675.584ZM96.362 675.6C96.362 673.568 94.986 672.352 93.386 672.352C91.786 672.352 90.426 673.52 90.426 675.584C90.426 677.648 91.786 678.864 93.386 678.864C94.986 678.864 96.362 677.664 96.362 675.6ZM99.7505 675.584C99.7505 672.848 101.559 671.088 103.927 671.088C105.303 671.088 106.567 671.792 107.175 672.8V668.16H108.647V680H107.175V678.352C106.647 679.328 105.511 680.144 103.911 680.144C101.559 680.144 99.7505 678.304 99.7505 675.584ZM107.175 675.6C107.175 673.568 105.799 672.352 104.199 672.352C102.599 672.352 101.239 673.52 101.239 675.584C101.239 677.648 102.599 678.864 104.199 678.864C105.799 678.864 107.175 677.664 107.175 675.6ZM111.635 671.232L114.371 678.656L117.091 671.232H118.643L115.203 680H113.507L110.067 671.232H111.635ZM123.18 680.144C121.132 680.144 119.692 679.024 119.596 677.424H121.1C121.18 678.272 121.932 678.912 123.164 678.912C124.316 678.912 124.956 678.336 124.956 677.616C124.956 675.664 119.772 676.8 119.772 673.536C119.772 672.192 121.036 671.088 122.988 671.088C124.924 671.088 126.204 672.128 126.3 673.84H124.844C124.78 672.96 124.108 672.32 122.94 672.32C121.868 672.32 121.228 672.832 121.228 673.536C121.228 675.616 126.316 674.48 126.38 677.616C126.38 679.056 125.116 680.144 123.18 680.144ZM128.963 671.232L131.699 678.656L134.419 671.232H135.971L132.531 680H130.835L127.395 671.232H128.963ZM137.404 668.16H138.86V680H137.404V668.16ZM141.869 671.232L144.605 678.656L147.325 671.232H148.877L145.437 680H143.741L140.301 671.232H141.869ZM155.104 671.232L157.84 678.656L160.56 671.232H162.112L158.672 680H156.976L153.536 671.232H155.104ZM162.505 671.232H163.993L166.009 678.592L168.185 671.232H169.673L171.801 678.608L173.785 671.232H175.225L172.489 680H170.985L168.873 673.04L166.761 680H165.257L162.505 671.232ZM177.198 671.232L179.934 678.656L182.654 671.232H184.206L180.766 680H179.07L175.63 671.232H177.198ZM189.462 680.144C186.982 680.144 185.094 678.384 185.094 675.6C185.094 672.832 187.046 671.088 189.526 671.088C192.022 671.088 193.958 672.832 193.958 675.6C193.958 678.384 191.958 680.144 189.462 680.144ZM189.462 678.864C190.982 678.864 192.47 677.824 192.47 675.6C192.47 673.392 191.014 672.352 189.51 672.352C187.974 672.352 186.582 673.392 186.582 675.6C186.582 677.824 187.942 678.864 189.462 678.864ZM194.833 671.232H196.321L198.337 678.592L200.513 671.232H202.001L204.129 678.608L206.113 671.232H207.553L204.817 680H203.313L201.201 673.04L199.089 680H197.585L194.833 671.232ZM209.526 671.232L212.262 678.656L214.982 671.232H216.534L213.094 680H211.398L207.958 671.232H209.526ZM221.79 680.144C219.31 680.144 217.422 678.384 217.422 675.6C217.422 672.832 219.374 671.088 221.854 671.088C224.35 671.088 226.286 672.832 226.286 675.6C226.286 678.384 224.286 680.144 221.79 680.144ZM221.79 678.864C223.31 678.864 224.798 677.824 224.798 675.6C224.798 673.392 223.342 672.352 221.838 672.352C220.302 672.352 218.91 673.392 218.91 675.6C218.91 677.824 220.27 678.864 221.79 678.864ZM227.161 671.232H228.649L230.665 678.592L232.841 671.232H234.329L236.457 678.608L238.441 671.232H239.881L237.145 680H235.641L233.529 673.04L231.417 680H229.913L227.161 671.232ZM242.782 675.232V680H241.326V671.232H242.782V672.656C243.278 671.68 244.222 671.072 245.614 671.072V672.576H245.23C243.838 672.576 242.782 673.2 242.782 675.232ZM250.911 671.088C252.511 671.088 253.663 671.888 254.175 672.832V671.232H255.647V680.192C255.647 682.608 254.031 684.32 251.455 684.32C249.151 684.32 247.503 683.152 247.215 681.28H248.655C248.975 682.336 250.015 683.056 251.455 683.056C253.007 683.056 254.175 682.064 254.175 680.192V678.352C253.647 679.296 252.511 680.144 250.911 680.144C248.559 680.144 246.751 678.304 246.751 675.584C246.751 672.848 248.559 671.088 250.911 671.088ZM254.175 675.6C254.175 673.568 252.799 672.352 251.199 672.352C249.599 672.352 248.239 673.52 248.239 675.584C248.239 677.648 249.599 678.864 251.199 678.864C252.799 678.864 254.175 677.664 254.175 675.6ZM257.067 671.232H258.555L260.571 678.592L262.747 671.232H264.235L266.363 678.608L268.347 671.232H269.787L267.051 680H265.547L263.435 673.04L261.323 680H259.819L257.067 671.232ZM272.688 675.232V680H271.232V671.232H272.688V672.656C273.184 671.68 274.128 671.072 275.52 671.072V672.576H275.136C273.744 672.576 272.688 673.2 272.688 675.232ZM280.817 671.088C282.417 671.088 283.569 671.888 284.081 672.832V671.232H285.553V680.192C285.553 682.608 283.937 684.32 281.361 684.32C279.057 684.32 277.409 683.152 277.121 681.28H278.561C278.881 682.336 279.921 683.056 281.361 683.056C282.913 683.056 284.081 682.064 284.081 680.192V678.352C283.553 679.296 282.417 680.144 280.817 680.144C278.465 680.144 276.657 678.304 276.657 675.584C276.657 672.848 278.465 671.088 280.817 671.088ZM284.081 675.6C284.081 673.568 282.705 672.352 281.105 672.352C279.505 672.352 278.145 673.52 278.145 675.584C278.145 677.648 279.505 678.864 281.105 678.864C282.705 678.864 284.081 677.664 284.081 675.6ZM291.239 671.232H292.727L294.743 678.592L296.919 671.232H298.407L300.535 678.608L302.519 671.232H303.959L301.223 680H299.719L297.607 673.04L295.495 680H293.991L291.239 671.232ZM305.932 671.232L308.668 678.656L311.388 671.232H312.94L309.5 680H307.804L304.364 671.232H305.932ZM317.989 671.088C319.589 671.088 320.741 671.888 321.253 672.832V671.232H322.725V680.192C322.725 682.608 321.109 684.32 318.533 684.32C316.229 684.32 314.581 683.152 314.293 681.28H315.733C316.053 682.336 317.093 683.056 318.533 683.056C320.085 683.056 321.253 682.064 321.253 680.192V678.352C320.725 679.296 319.589 680.144 317.989 680.144C315.637 680.144 313.829 678.304 313.829 675.584C313.829 672.848 315.637 671.088 317.989 671.088ZM321.253 675.6C321.253 673.568 319.877 672.352 318.277 672.352C316.677 672.352 315.317 673.52 315.317 675.584C315.317 677.648 316.677 678.864 318.277 678.864C319.877 678.864 321.253 677.664 321.253 675.6ZM56.192 687.232H57.68L59.696 694.592L61.872 687.232H63.36L65.488 694.608L67.472 687.232H68.912L66.176 696H64.672L62.56 689.04L60.448 696H58.944L56.192 687.232ZM71.813 691.232V696H70.357V687.232H71.813V688.656C72.309 687.68 73.253 687.072 74.645 687.072V688.576H74.261C72.869 688.576 71.813 689.2 71.813 691.232ZM79.9418 687.088C81.5418 687.088 82.6938 687.888 83.2058 688.832V687.232H84.6778V696.192C84.6778 698.608 83.0618 700.32 80.4858 700.32C78.1818 700.32 76.5338 699.152 76.2458 697.28H77.6858C78.0058 698.336 79.0458 699.056 80.4858 699.056C82.0378 699.056 83.2058 698.064 83.2058 696.192V694.352C82.6778 695.296 81.5418 696.144 79.9418 696.144C77.5898 696.144 75.7818 694.304 75.7818 691.584C75.7818 688.848 77.5898 687.088 79.9418 687.088ZM83.2058 691.6C83.2058 689.568 81.8298 688.352 80.2298 688.352C78.6298 688.352 77.2698 689.52 77.2698 691.584C77.2698 693.648 78.6298 694.864 80.2298 694.864C81.8298 694.864 83.2058 693.664 83.2058 691.6ZM88.5943 691.232V696H87.1383V687.232H88.5943V688.656C89.0903 687.68 90.0343 687.072 91.4263 687.072V688.576H91.0423C89.6503 688.576 88.5943 689.2 88.5943 691.232ZM96.723 687.088C98.323 687.088 99.475 687.888 99.987 688.832V687.232H101.459V696.192C101.459 698.608 99.843 700.32 97.267 700.32C94.963 700.32 93.315 699.152 93.027 697.28H94.467C94.787 698.336 95.827 699.056 97.267 699.056C98.819 699.056 99.987 698.064 99.987 696.192V694.352C99.459 695.296 98.323 696.144 96.723 696.144C94.371 696.144 92.563 694.304 92.563 691.584C92.563 688.848 94.371 687.088 96.723 687.088ZM99.987 691.6C99.987 689.568 98.611 688.352 97.011 688.352C95.411 688.352 94.051 689.52 94.051 691.584C94.051 693.648 95.411 694.864 97.011 694.864C98.611 694.864 99.987 693.664 99.987 691.6ZM102.88 687.232H104.368L106.384 694.592L108.56 687.232H110.048L112.176 694.608L114.16 687.232H115.6L112.864 696H111.36L109.248 689.04L107.136 696H105.632L102.88 687.232ZM120.661 687.088C122.261 687.088 123.413 687.888 123.925 688.832V687.232H125.397V696.192C125.397 698.608 123.781 700.32 121.205 700.32C118.901 700.32 117.253 699.152 116.965 697.28H118.405C118.725 698.336 119.765 699.056 121.205 699.056C122.757 699.056 123.925 698.064 123.925 696.192V694.352C123.397 695.296 122.261 696.144 120.661 696.144C118.309 696.144 116.501 694.304 116.501 691.584C116.501 688.848 118.309 687.088 120.661 687.088ZM123.925 691.6C123.925 689.568 122.549 688.352 120.949 688.352C119.349 688.352 117.989 689.52 117.989 691.584C117.989 693.648 119.349 694.864 120.949 694.864C122.549 694.864 123.925 693.664 123.925 691.6ZM126.817 687.232H128.305L130.321 694.592L132.497 687.232H133.985L136.113 694.608L138.097 687.232H139.537L136.801 696H135.297L133.185 689.04L131.073 696H129.569L126.817 687.232ZM144.598 687.088C146.198 687.088 147.35 687.888 147.862 688.832V687.232H149.334V696.192C149.334 698.608 147.718 700.32 145.142 700.32C142.838 700.32 141.19 699.152 140.902 697.28H142.342C142.662 698.336 143.702 699.056 145.142 699.056C146.694 699.056 147.862 698.064 147.862 696.192V694.352C147.334 695.296 146.198 696.144 144.598 696.144C142.246 696.144 140.438 694.304 140.438 691.584C140.438 688.848 142.246 687.088 144.598 687.088ZM147.862 691.6C147.862 689.568 146.486 688.352 144.886 688.352C143.286 688.352 141.926 689.52 141.926 691.584C141.926 693.648 143.286 694.864 144.886 694.864C146.486 694.864 147.862 693.664 147.862 691.6ZM155.523 688.32C154.099 688.32 152.914 689.264 152.755 690.976H158.291C158.307 689.264 157.027 688.32 155.523 688.32ZM159.619 693.296C159.171 694.896 157.763 696.144 155.587 696.144C153.091 696.144 151.251 694.384 151.251 691.6C151.251 688.832 153.027 687.088 155.587 687.088C158.131 687.088 159.795 688.88 159.795 691.28C159.795 691.6 159.779 691.856 159.747 692.16H152.739C152.851 693.936 154.099 694.912 155.587 694.912C156.899 694.912 157.731 694.24 158.051 693.296H159.619ZM163.172 691.232V696H161.716V687.232H163.172V688.656C163.668 687.68 164.612 687.072 166.004 687.072V688.576H165.62C164.228 688.576 163.172 689.2 163.172 691.232ZM171.301 687.088C172.901 687.088 174.053 687.888 174.565 688.832V687.232H176.037V696.192C176.037 698.608 174.421 700.32 171.845 700.32C169.541 700.32 167.893 699.152 167.605 697.28H169.045C169.365 698.336 170.405 699.056 171.845 699.056C173.397 699.056 174.565 698.064 174.565 696.192V694.352C174.037 695.296 172.901 696.144 171.301 696.144C168.949 696.144 167.141 694.304 167.141 691.584C167.141 688.848 168.949 687.088 171.301 687.088ZM174.565 691.6C174.565 689.568 173.189 688.352 171.589 688.352C169.989 688.352 168.629 689.52 168.629 691.584C168.629 693.648 169.989 694.864 171.589 694.864C173.189 694.864 174.565 693.664 174.565 691.6ZM182.114 687.088C183.714 687.088 184.866 687.888 185.378 688.832V687.232H186.85V696.192C186.85 698.608 185.234 700.32 182.658 700.32C180.354 700.32 178.706 699.152 178.418 697.28H179.858C180.178 698.336 181.218 699.056 182.658 699.056C184.21 699.056 185.378 698.064 185.378 696.192V694.352C184.85 695.296 183.714 696.144 182.114 696.144C179.762 696.144 177.954 694.304 177.954 691.584C177.954 688.848 179.762 687.088 182.114 687.088ZM185.378 691.6C185.378 689.568 184.002 688.352 182.402 688.352C180.802 688.352 179.442 689.52 179.442 691.584C179.442 693.648 180.802 694.864 182.402 694.864C184.002 694.864 185.378 693.664 185.378 691.6ZM193.038 688.32C191.614 688.32 190.43 689.264 190.27 690.976H195.806C195.822 689.264 194.542 688.32 193.038 688.32ZM197.134 693.296C196.686 694.896 195.278 696.144 193.102 696.144C190.606 696.144 188.766 694.384 188.766 691.6C188.766 688.832 190.542 687.088 193.102 687.088C195.646 687.088 197.31 688.88 197.31 691.28C197.31 691.6 197.294 691.856 197.262 692.16H190.254C190.366 693.936 191.614 694.912 193.102 694.912C194.414 694.912 195.246 694.24 195.566 693.296H197.134ZM202.96 688.32C201.536 688.32 200.352 689.264 200.192 690.976H205.728C205.744 689.264 204.464 688.32 202.96 688.32ZM207.056 693.296C206.608 694.896 205.2 696.144 203.024 696.144C200.528 696.144 198.688 694.384 198.688 691.6C198.688 688.832 200.464 687.088 203.024 687.088C205.568 687.088 207.232 688.88 207.232 691.28C207.232 691.6 207.216 691.856 207.184 692.16H200.176C200.288 693.936 201.536 694.912 203.024 694.912C204.336 694.912 205.168 694.24 205.488 693.296H207.056ZM212.77 687.088C214.37 687.088 215.522 687.888 216.034 688.832V687.232H217.506V696.192C217.506 698.608 215.89 700.32 213.314 700.32C211.01 700.32 209.362 699.152 209.074 697.28H210.514C210.834 698.336 211.874 699.056 213.314 699.056C214.866 699.056 216.034 698.064 216.034 696.192V694.352C215.506 695.296 214.37 696.144 212.77 696.144C210.418 696.144 208.61 694.304 208.61 691.584C208.61 688.848 210.418 687.088 212.77 687.088ZM216.034 691.6C216.034 689.568 214.658 688.352 213.058 688.352C211.458 688.352 210.098 689.52 210.098 691.584C210.098 693.648 211.458 694.864 213.058 694.864C214.658 694.864 216.034 693.664 216.034 691.6ZM223.694 688.32C222.27 688.32 221.086 689.264 220.926 690.976H226.462C226.478 689.264 225.198 688.32 223.694 688.32ZM227.79 693.296C227.342 694.896 225.934 696.144 223.758 696.144C221.262 696.144 219.422 694.384 219.422 691.6C219.422 688.832 221.198 687.088 223.758 687.088C226.302 687.088 227.966 688.88 227.966 691.28C227.966 691.6 227.95 691.856 227.918 692.16H220.91C221.022 693.936 222.27 694.912 223.758 694.912C225.07 694.912 225.902 694.24 226.222 693.296H227.79ZM233.504 687.088C235.104 687.088 236.256 687.888 236.768 688.832V687.232H238.24V696.192C238.24 698.608 236.624 700.32 234.048 700.32C231.744 700.32 230.096 699.152 229.808 697.28H231.248C231.568 698.336 232.608 699.056 234.048 699.056C235.6 699.056 236.768 698.064 236.768 696.192V694.352C236.24 695.296 235.104 696.144 233.504 696.144C231.152 696.144 229.344 694.304 229.344 691.584C229.344 688.848 231.152 687.088 233.504 687.088ZM236.768 691.6C236.768 689.568 235.392 688.352 233.792 688.352C232.192 688.352 230.832 689.52 230.832 691.584C230.832 693.648 232.192 694.864 233.792 694.864C235.392 694.864 236.768 693.664 236.768 691.6ZM244.429 688.32C243.005 688.32 241.821 689.264 241.661 690.976H247.197C247.213 689.264 245.933 688.32 244.429 688.32ZM248.525 693.296C248.077 694.896 246.669 696.144 244.493 696.144C241.997 696.144 240.157 694.384 240.157 691.6C240.157 688.832 241.933 687.088 244.493 687.088C247.037 687.088 248.701 688.88 248.701 691.28C248.701 691.6 248.685 691.856 248.653 692.16H241.645C241.757 693.936 243.005 694.912 244.493 694.912C245.805 694.912 246.637 694.24 246.957 693.296H248.525ZM254.239 687.088C255.839 687.088 256.991 687.888 257.503 688.832V687.232H258.975V696.192C258.975 698.608 257.359 700.32 254.783 700.32C252.479 700.32 250.831 699.152 250.543 697.28H251.983C252.303 698.336 253.343 699.056 254.783 699.056C256.335 699.056 257.503 698.064 257.503 696.192V694.352C256.975 695.296 255.839 696.144 254.239 696.144C251.887 696.144 250.079 694.304 250.079 691.584C250.079 688.848 251.887 687.088 254.239 687.088ZM257.503 691.6C257.503 689.568 256.127 688.352 254.527 688.352C252.927 688.352 251.567 689.52 251.567 691.584C251.567 693.648 252.927 694.864 254.527 694.864C256.127 694.864 257.503 693.664 257.503 691.6ZM265.163 688.32C263.739 688.32 262.555 689.264 262.395 690.976H267.931C267.947 689.264 266.667 688.32 265.163 688.32ZM269.259 693.296C268.811 694.896 267.403 696.144 265.227 696.144C262.731 696.144 260.891 694.384 260.891 691.6C260.891 688.832 262.667 687.088 265.227 687.088C267.771 687.088 269.435 688.88 269.435 691.28C269.435 691.6 269.419 691.856 269.387 692.16H262.379C262.491 693.936 263.739 694.912 265.227 694.912C266.539 694.912 267.371 694.24 267.691 693.296H269.259ZM274.973 687.088C276.573 687.088 277.725 687.888 278.237 688.832V687.232H279.709V696.192C279.709 698.608 278.093 700.32 275.517 700.32C273.213 700.32 271.565 699.152 271.277 697.28H272.717C273.037 698.336 274.077 699.056 275.517 699.056C277.069 699.056 278.237 698.064 278.237 696.192V694.352C277.709 695.296 276.573 696.144 274.973 696.144C272.621 696.144 270.813 694.304 270.813 691.584C270.813 688.848 272.621 687.088 274.973 687.088ZM278.237 691.6C278.237 689.568 276.861 688.352 275.261 688.352C273.661 688.352 272.301 689.52 272.301 691.584C272.301 693.648 273.661 694.864 275.261 694.864C276.861 694.864 278.237 693.664 278.237 691.6ZM285.898 688.32C284.474 688.32 283.289 689.264 283.13 690.976H288.666C288.682 689.264 287.402 688.32 285.898 688.32ZM289.994 693.296C289.546 694.896 288.138 696.144 285.962 696.144C283.466 696.144 281.626 694.384 281.626 691.6C281.626 688.832 283.402 687.088 285.962 687.088C288.506 687.088 290.17 688.88 290.17 691.28C290.17 691.6 290.154 691.856 290.122 692.16H283.114C283.226 693.936 284.474 694.912 285.962 694.912C287.274 694.912 288.106 694.24 288.426 693.296H289.994ZM295.707 687.088C297.307 687.088 298.459 687.888 298.971 688.832V687.232H300.443V696.192C300.443 698.608 298.827 700.32 296.251 700.32C293.947 700.32 292.299 699.152 292.011 697.28H293.451C293.771 698.336 294.811 699.056 296.251 699.056C297.803 699.056 298.971 698.064 298.971 696.192V694.352C298.443 695.296 297.307 696.144 295.707 696.144C293.355 696.144 291.547 694.304 291.547 691.584C291.547 688.848 293.355 687.088 295.707 687.088ZM298.971 691.6C298.971 689.568 297.595 688.352 295.995 688.352C294.395 688.352 293.035 689.52 293.035 691.584C293.035 693.648 294.395 694.864 295.995 694.864C297.595 694.864 298.971 693.664 298.971 691.6ZM306.632 688.32C305.208 688.32 304.024 689.264 303.864 690.976H309.4C309.416 689.264 308.136 688.32 306.632 688.32ZM310.728 693.296C310.28 694.896 308.872 696.144 306.696 696.144C304.2 696.144 302.36 694.384 302.36 691.6C302.36 688.832 304.136 687.088 306.696 687.088C309.24 687.088 310.904 688.88 310.904 691.28C310.904 691.6 310.888 691.856 310.856 692.16H303.848C303.96 693.936 305.208 694.912 306.696 694.912C308.008 694.912 308.84 694.24 309.16 693.296H310.728Z" fill="white" fill-opacity="0.8"/>
</g>
<defs>
<clipPath id="clip0_24_255">
<rect width="1026" height="776" fill="white" transform="translate(776 3.05176e-05) rotate(90)"/>
</clipPath>
</defs>
</svg>
